<svg xmlns="http://www.w3.org/2000/svg" width="37" height="37.099" viewBox="0 0 37 37.099">
  <g id="Group_2270" data-name="Group 2270" transform="translate(17.228 -71.489)">
    <path id="Path_25561" data-name="Path 25561" d="M8.278,108.008H1.611v-3.092h-.1A8.036,8.036,0,0,1,.38,106.2a8.577,8.577,0,0,1-1.643,1.183,9.966,9.966,0,0,1-2.077.869,8.161,8.161,0,0,1-2.343.339,12.1,12.1,0,0,1-4.734-.895,10.524,10.524,0,0,1-3.646-2.511,11.172,11.172,0,0,1-2.343-3.841,13.937,13.937,0,0,1-.822-4.879,14.786,14.786,0,0,1,.749-4.709,12.977,12.977,0,0,1,2.126-3.985A10.371,10.371,0,0,1-11,84.99,9.531,9.531,0,0,1-6.5,83.952a12.473,12.473,0,0,1,4.227.7A6.772,6.772,0,0,1,.934,87.043h.1V71.489H8.278ZM1.611,96.27a6.072,6.072,0,0,0-1.521-4.3,5.538,5.538,0,0,0-4.275-1.643A5.538,5.538,0,0,0-8.46,91.971a6.077,6.077,0,0,0-1.521,4.3,6.072,6.072,0,0,0,1.521,4.3,5.534,5.534,0,0,0,4.275,1.643A5.534,5.534,0,0,0,.09,100.568,6.067,6.067,0,0,0,1.611,96.27Z" transform="translate(0 0)" fill="#fff"/>
    <path id="Path_25567" data-name="Path 25567" d="M8.349,108.008H1.682v-3.092h-.1A7.969,7.969,0,0,1,.452,106.2a8.649,8.649,0,0,1-1.643,1.183,9.976,9.976,0,0,1-2.078.869,8.149,8.149,0,0,1-2.343.339,12.1,12.1,0,0,1-4.734-.895,10.534,10.534,0,0,1-3.646-2.511,11.208,11.208,0,0,1-2.343-3.841,13.963,13.963,0,0,1-.821-4.879,14.754,14.754,0,0,1,.749-4.709,12.95,12.95,0,0,1,2.125-3.985,10.387,10.387,0,0,1,3.357-2.778,9.528,9.528,0,0,1,4.493-1.038,12.466,12.466,0,0,1,4.226.7,6.77,6.77,0,0,1,3.212,2.391h.1V71.489H8.349ZM1.682,96.27a6.072,6.072,0,0,0-1.521-4.3,5.536,5.536,0,0,0-4.275-1.643,5.535,5.535,0,0,0-4.274,1.643,6.073,6.073,0,0,0-1.522,4.3,6.068,6.068,0,0,0,1.522,4.3,5.531,5.531,0,0,0,4.274,1.643,5.532,5.532,0,0,0,4.275-1.643A6.067,6.067,0,0,0,1.682,96.27Z" transform="translate(0.01 0)" fill="#fff"/>
    <g id="Group_2269" data-name="Group 2269" transform="translate(13.134 101.949)">
      <path id="Path_25572" data-name="Path 25572" d="M81.912,98.08A3.319,3.319,0,1,0,85.23,101.4,3.319,3.319,0,0,0,81.912,98.08Zm1.5,4.879h-.693a.389.389,0,0,1-.12-.246,2.1,2.1,0,0,1-.027-.328v-.237a.535.535,0,0,0-.136-.391.52.52,0,0,0-.386-.14H81.4v1.341h-.672V99.6H82a1.393,1.393,0,0,1,.9.261.889.889,0,0,1,.324.73.739.739,0,0,1-.136.447.953.953,0,0,1-.4.3.715.715,0,0,1,.427.292.936.936,0,0,1,.131.507v.246a1.22,1.22,0,0,0,.038.293.411.411,0,0,0,.129.228Z" transform="translate(-78.592 -98.08)" fill="#fff"/>
      <path id="Path_25573" data-name="Path 25573" d="M81.639,99.863h-.592v.976h.581a.633.633,0,0,0,.423-.119.44.44,0,0,0,.14-.355.485.485,0,0,0-.14-.367A.567.567,0,0,0,81.639,99.863Z" transform="translate(-78.235 -97.821)" fill="#fff"/>
    </g>
  </g>
</svg>
