<svg xmlns="http://www.w3.org/2000/svg" width="114.664" height="36.545" viewBox="0 0 114.664 36.545"><g transform="translate(17.228 -71.489)"><path d="M7.9,107.463H1.33v-3.046H1.235a7.917,7.917,0,0,1-1.118,1.26A8.448,8.448,0,0,1-1.5,106.844a9.817,9.817,0,0,1-2.046.856,8.039,8.039,0,0,1-2.308.334,11.924,11.924,0,0,1-4.664-.881,10.367,10.367,0,0,1-3.592-2.474,11.006,11.006,0,0,1-2.308-3.784,13.729,13.729,0,0,1-.81-4.806,14.565,14.565,0,0,1,.738-4.639A12.783,12.783,0,0,1-14.4,87.525a10.216,10.216,0,0,1,3.306-2.736,9.389,9.389,0,0,1,4.426-1.022,12.286,12.286,0,0,1,4.164.689A6.671,6.671,0,0,1,.663,86.811h.1V71.489H7.9ZM1.33,95.9a5.982,5.982,0,0,0-1.5-4.235A5.455,5.455,0,0,0-4.38,90.047a5.455,5.455,0,0,0-4.211,1.618,5.987,5.987,0,0,0-1.5,4.235,5.982,5.982,0,0,0,1.5,4.234,5.451,5.451,0,0,0,4.211,1.618,5.451,5.451,0,0,0,4.211-1.618A5.977,5.977,0,0,0,1.33,95.9Z" fill="#4681f8"/><path d="M10.182,82.875h7.137V106H10.182Z" transform="translate(3.52 1.462)" fill="#4681f8"/><path d="M21.145,71.489h7.137v35.974H21.145Z" transform="translate(4.928)" fill="#4681f8"/><path d="M32.108,71.489h7.138v35.974H32.108Z" transform="translate(6.336)" fill="#4681f8"/><path d="M64.957,102.068a11.371,11.371,0,0,1-4.33,3.379,12.97,12.97,0,0,1-5.425,1.19,14.6,14.6,0,0,1-5.019-.856,12.06,12.06,0,0,1-4.092-2.451A11.478,11.478,0,0,1,43.355,99.5a12.983,12.983,0,0,1,0-9.992,11.485,11.485,0,0,1,2.736-3.83,12.06,12.06,0,0,1,4.092-2.451,14.57,14.57,0,0,1,5.019-.856,11.426,11.426,0,0,1,4.5.856,9.373,9.373,0,0,1,3.426,2.451,11.191,11.191,0,0,1,2.165,3.83,15.5,15.5,0,0,1,.761,5v2.237H49.492A5.656,5.656,0,0,0,51.349,100a5.247,5.247,0,0,0,3.522,1.213,5.368,5.368,0,0,0,2.973-.784A7.974,7.974,0,0,0,59.961,98.4ZM58.915,91.885a4.133,4.133,0,0,0-1.189-3.092,4.233,4.233,0,0,0-3.188-1.285,5.377,5.377,0,0,0-2.094.38,5.252,5.252,0,0,0-1.546.976,4.278,4.278,0,0,0-1,1.38,4.528,4.528,0,0,0-.405,1.641Z" transform="translate(7.652 1.397)" fill="#4681f8"/><path d="M67.192,82.94h7.137v3.711h.095a8.759,8.759,0,0,1,2.714-3.211,6.846,6.846,0,0,1,3.948-1.071c.412,0,.825.016,1.237.047a6.042,6.042,0,0,1,1.142.191v6.519a10.622,10.622,0,0,0-1.5-.357,9.747,9.747,0,0,0-1.546-.12,7.581,7.581,0,0,0-3.235.571,4.288,4.288,0,0,0-1.833,1.594,6.062,6.062,0,0,0-.833,2.45,23.746,23.746,0,0,0-.191,3.14v9.66H67.192Z" transform="translate(10.841 1.397)" fill="#4681f8"/><path d="M7.968,107.463H1.4v-3.046H1.306a7.85,7.85,0,0,1-1.117,1.26,8.519,8.519,0,0,1-1.618,1.166,9.827,9.827,0,0,1-2.047.856,8.027,8.027,0,0,1-2.308.334,11.924,11.924,0,0,1-4.664-.881,10.377,10.377,0,0,1-3.592-2.474,11.04,11.04,0,0,1-2.308-3.784,13.755,13.755,0,0,1-.809-4.806,14.534,14.534,0,0,1,.738-4.639,12.757,12.757,0,0,1,2.093-3.926,10.232,10.232,0,0,1,3.307-2.736,9.386,9.386,0,0,1,4.426-1.022,12.28,12.28,0,0,1,4.163.689A6.669,6.669,0,0,1,.735,86.811h.1V71.489H7.968ZM1.4,95.9A5.982,5.982,0,0,0-.1,91.665a5.454,5.454,0,0,0-4.211-1.618,5.453,5.453,0,0,0-4.21,1.618,5.982,5.982,0,0,0-1.5,4.235,5.977,5.977,0,0,0,1.5,4.234,5.449,5.449,0,0,0,4.21,1.618A5.45,5.45,0,0,0-.1,100.134,5.977,5.977,0,0,0,1.4,95.9Z" transform="translate(0.009)" fill="#4681f8"/><path d="M10.253,82.875H17.39V106H10.253Z" transform="translate(3.529 1.462)" fill="#4681f8"/><path d="M21.216,71.489h7.137v35.974H21.216Z" transform="translate(4.937)" fill="#4681f8"/><path d="M65.028,102.068a11.363,11.363,0,0,1-4.33,3.379,12.965,12.965,0,0,1-5.424,1.19,14.592,14.592,0,0,1-5.019-.856,12.076,12.076,0,0,1-4.093-2.451A11.46,11.46,0,0,1,43.427,99.5a12.97,12.97,0,0,1,0-9.992,11.466,11.466,0,0,1,2.735-3.83,12.076,12.076,0,0,1,4.093-2.451,14.566,14.566,0,0,1,5.019-.856,11.421,11.421,0,0,1,4.5.856A9.364,9.364,0,0,1,63.2,85.676a11.191,11.191,0,0,1,2.165,3.83,15.467,15.467,0,0,1,.762,5v2.237H49.564A5.649,5.649,0,0,0,51.42,100a5.251,5.251,0,0,0,3.522,1.213,5.368,5.368,0,0,0,2.973-.784A8,8,0,0,0,60.033,98.4ZM58.986,91.885A4.128,4.128,0,0,0,57.8,88.793a4.231,4.231,0,0,0-3.188-1.285,5.371,5.371,0,0,0-2.093.38,5.258,5.258,0,0,0-1.547.976,4.274,4.274,0,0,0-1,1.38,4.528,4.528,0,0,0-.405,1.641Z" transform="translate(7.661 1.397)" fill="#4681f8"/><path d="M67.264,82.94H74.4v3.711H74.5a8.757,8.757,0,0,1,2.713-3.211,6.85,6.85,0,0,1,3.949-1.071c.411,0,.824.016,1.237.047a6.073,6.073,0,0,1,1.142.191v6.519a10.674,10.674,0,0,0-1.5-.357,9.726,9.726,0,0,0-1.546-.12,7.588,7.588,0,0,0-3.235.571,4.291,4.291,0,0,0-1.831,1.594,6.045,6.045,0,0,0-.833,2.45,23.745,23.745,0,0,0-.191,3.14v9.66H67.264Z" transform="translate(10.851 1.397)" fill="#4681f8"/><g transform="translate(90.897 101.495)"><path d="M81.862,98.08a3.27,3.27,0,1,0,3.269,3.269A3.27,3.27,0,0,0,81.862,98.08Zm1.475,4.806h-.683a.383.383,0,0,1-.118-.243,2.064,2.064,0,0,1-.027-.323v-.234a.527.527,0,0,0-.134-.385.512.512,0,0,0-.38-.138h-.632v1.321H80.7V99.581h1.246a1.372,1.372,0,0,1,.885.257.876.876,0,0,1,.319.719.728.728,0,0,1-.134.44.939.939,0,0,1-.393.3.7.7,0,0,1,.421.288.922.922,0,0,1,.129.5v.243a1.2,1.2,0,0,0,.037.289.4.4,0,0,0,.128.225Z" transform="translate(-78.592 -98.08)" fill="#4681f8"/><path d="M81.63,99.863h-.583v.961h.572a.624.624,0,0,0,.416-.117.433.433,0,0,0,.138-.35.478.478,0,0,0-.138-.361A.558.558,0,0,0,81.63,99.863Z" transform="translate(-78.277 -97.851)" fill="#4681f8"/></g></g></svg>