<svg xmlns="http://www.w3.org/2000/svg" xmlns:xlink="http://www.w3.org/1999/xlink" width="361.137" height="519.545" viewBox="0 0 361.137 519.545">
  <defs>
    <clipPath id="clip-path">
      <rect id="Rectangle_4613" data-name="Rectangle 4613" width="361.137" height="519.545" transform="translate(1350 403)" fill="#f0f7ff"/>
    </clipPath>
  </defs>
  <g id="Mask_Group_1" data-name="Mask Group 1" transform="translate(-1350 -403)" clip-path="url(#clip-path)">
    <g id="Group_2252" data-name="Group 2252" transform="translate(1350 412.673)">
      <path id="Path_4851" data-name="Path 4851" d="M672.476,810.3s0,20.742-30.2,24.138-43.789,5.458-44.153,10.189,17.164,4.912,22.865,5.276,9.825,9.825,2.244,13.222-34.752-3.4-42.879,8.673-30.749,28.141-69.868,28.323c-39.058.182-52.461,2.062-53.978,13.221s2.244,16.254,16.982,16.254h79.693s12.8,1.7,11.705,13.585c-.182,2.062-3.76,6.975-10.371,6.975H123.845s-14.131-1.335-15.284-12.433,5.276-16.436,14.92-16.436H213s14.738-1.516,14.738-17.346-19.044-17.952-26.989-17.952H102.557S51.006,889.2,51.794,846.932C52.279,818.791,74.477,812,92.186,812S672.476,810.3,672.476,810.3Z" transform="translate(-51.785 -445.739)" fill="#f0f7ff"/>
      <path id="Path_4852" data-name="Path 4852" d="M225.829,799.208s-6.489,31.72-4.973,33.418c1.577,1.7,3.093,3.336,3.093,3.336l-10.068-.243,1.577-25.776S195.5,824.5,196.171,826.2a68.587,68.587,0,0,1,1.941,7.1L189.5,822.679,214.427,796.6Z" transform="translate(-105.977 -440.348)" fill="#f8f9fa"/>
      <path id="Path_4853" data-name="Path 4853" d="M857.072,848.336l-11.705-30.324s-.909-2.912,4.913-2.912c4.67,0,30.931.122,41.423.182a3,3,0,0,1,2.79,4.063l-10.371,27.717Z" transform="translate(-364.047 -447.628)" fill="#f8f9fa"/>
      <g id="Group_1563" data-name="Group 1563" transform="translate(166.126 109.713)">
        <path id="Path_4854" data-name="Path 4854" d="M507.476,442.136s-18.255-3.942-18.377-24.927,14.738-27.231,23.9-27.11a20.18,20.18,0,0,1,18.862,12.979c.97,2.486,2.79,3.578,5.4,2.486,2.547-1.092,2.3-3.639,8.006-2.729s5.216,7.581,9.582,7.46,6.55-8.188,16.375-6.793,13.707,8.855,15.466,13.161,5.943,4.549,7.945,2.911,2.911-3.578,4.609-2.487c1.759,1.092-4.973,38.694-37.663,37.117C528.946,452.628,507.476,442.136,507.476,442.136Z" transform="translate(-389.999 -390.097)" fill="#152646"/>
        <path id="Path_4855" data-name="Path 4855" d="M588.688,504.006s-8.066-19.286-24.077-26.625-33.418-4.367-33.418-4.367l-14.01,6.914s-.97,5.641-2.85,12.615c-1.82,6.914,2.972,13.464,2.972,13.464l5.4,15.162h20.8l8.066-33.963a25.837,25.837,0,0,1,19.408,9.219c8.37,9.765,10.674,15.648,10.674,15.648S589.841,508.554,588.688,504.006Z" transform="translate(-399.767 -422.492)" fill="#f8f9fa"/>
        <path id="Path_4856" data-name="Path 4856" d="M552.655,500.2s-1.4,9.7-10.8,11.463-12.008,4.245-12.554,10.068a75.344,75.344,0,0,0-.182,10.978l18.377-.546C547.56,532.162,552.837,504.264,552.655,500.2Z" transform="translate(-405.702 -433.424)" fill="#b8cae8"/>
        <g id="Group_1555" data-name="Group 1555" transform="translate(32.345 40.595)">
          <path id="Path_4857" data-name="Path 4857" d="M400.907,477.3l-9.037,5.822a.6.6,0,0,1-.849-.182l-11.887-18.437a.6.6,0,0,1,.182-.849l9.037-5.822a.6.6,0,0,1,.849.182l11.887,18.437A.6.6,0,0,1,400.907,477.3Z" transform="translate(-379.031 -457.307)" fill="#437efd"/>
          <path id="Path_4858" data-name="Path 4858" d="M402.107,476.6l-9.037,5.822a.6.6,0,0,1-.849-.182l-11.887-18.437a.6.6,0,0,1,.182-.849l9.037-5.822a.6.6,0,0,1,.849.182l11.887,18.437A.653.653,0,0,1,402.107,476.6Z" transform="translate(-379.504 -457.031)" fill="#152646"/>
          <path id="Path_4859" data-name="Path 4859" d="M400.9,475.543l-7.338,4.731a.554.554,0,0,1-.667-.121l-9.34-14.495a.554.554,0,0,1,.121-.667l7.338-4.731a.554.554,0,0,1,.667.121l9.34,14.5A.537.537,0,0,1,400.9,475.543Z" transform="translate(-380.788 -458.277)" fill="#23e5a5"/>
        </g>
        <path id="Path_4860" data-name="Path 4860" d="M610.837,734.1s-.364,38.512-27.231,47.185c-10.492,3.4-23.411-3.4-41.544,3.4s-43.971,24.927-72.961-1.7c0,0,4.245-19.832,41.241-28.99C547.277,744.835,593.673,746.109,610.837,734.1Z" transform="translate(-382.129 -525.466)" fill="#437efd"/>
        <path id="Path_4861" data-name="Path 4861" d="M639.742,780.327c5.216,5.337,35.3,36.814,35.3,36.814l-6.793,6.429s-35.783-29.536-45.972-39.725C612.086,773.717,627.855,768.258,639.742,780.327Z" transform="translate(-441.116 -540.944)" fill="#afb2d9"/>
        <path id="Path_4862" data-name="Path 4862" d="M534.814,772.456s-.667,28.323,12.918,68.352l-9.521.485s-18.316-38.876-18.013-74.841c0,0-.182-11.038,9.522-10.371C539.424,756.87,534.814,772.456,534.814,772.456Z" transform="translate(-402.235 -534.104)" fill="#afb2d9"/>
        <g id="Group_1556" data-name="Group 1556" transform="translate(84.848 48.4)">
          <path id="Path_4863" data-name="Path 4863" d="M513.715,491.431a32.477,32.477,0,0,1-12.615-2.487l1.152-2.608-.607,1.274.607-1.274c.121.061,11.766,5.155,23.229-.485,6.55-3.215,9.158-7.1,11.28-10.128,1.82-2.608,3.336-4.913,6.55-5.822l.788,2.729c-2.183.667-3.4,2.366-4.973,4.67a29.849,29.849,0,0,1-12.372,11.1A28.468,28.468,0,0,1,513.715,491.431Z" transform="translate(-479.57 -469.9)" fill="#152646"/>
          <path id="Path_4864" data-name="Path 4864" d="M500.527,528.7a15.165,15.165,0,0,1-8.127-5.883l2.426-1.516a12.518,12.518,0,0,0,6.61,4.67Z" transform="translate(-476.146 -490.127)" fill="#152646"/>
          <path id="Path_4865" data-name="Path 4865" d="M491.632,540.045c-2.972-2.426-6.55-5.762-6.732-5.883l1.941-2.062c.061.061,3.7,3.4,6.611,5.761Z" transform="translate(-473.195 -494.376)" fill="#152646"/>
          <path id="Path_4866" data-name="Path 4866" d="M479.86,547.713a45.092,45.092,0,0,0-3.76-7.1l2.365-1.516a45.137,45.137,0,0,1,4.063,7.7Z" transform="translate(-469.732 -497.131)" fill="#152646"/>
          <path id="Path_4867" data-name="Path 4867" d="M468.39,551.566l-2.79-.485a35.073,35.073,0,0,0,.061-7.277l2.79-.3A34.411,34.411,0,0,1,468.39,551.566Z" transform="translate(-465.6 -498.863)" fill="#152646"/>
          <path id="Path_4868" data-name="Path 4868" d="M625.941,535.5,624,533.442a17.6,17.6,0,0,1,9.522-3.942l.3,2.79A15.448,15.448,0,0,0,625.941,535.5Z" transform="translate(-527.932 -493.353)" fill="#152646"/>
          <path id="Path_4869" data-name="Path 4869" d="M620.783,523.785l-2.183-1.759a21.854,21.854,0,0,1,9.219-6.126l.97,2.669A19.975,19.975,0,0,0,620.783,523.785Z" transform="translate(-525.807 -488.002)" fill="#152646"/>
          <path id="Path_4870" data-name="Path 4870" d="M612.666,512.112l-2.366-1.577a20.826,20.826,0,0,1,9.1-7.035l.971,2.668A17.586,17.586,0,0,0,612.666,512.112Z" transform="translate(-522.541 -483.122)" fill="#152646"/>
          <path id="Path_4871" data-name="Path 4871" d="M603.769,500.94l-2.669-.91c.121-.364,1.456-3.881,7.642-8.43l1.7,2.3C604.921,497.908,603.769,500.94,603.769,500.94Z" transform="translate(-518.92 -478.439)" fill="#152646"/>
          <path id="Path_4872" data-name="Path 4872" d="M591.09,491.6l-2.79-.485a18.626,18.626,0,0,1,6.611-10.614l1.7,2.244A15.771,15.771,0,0,0,591.09,491.6Z" transform="translate(-513.884 -474.071)" fill="#152646"/>
          <path id="Path_4873" data-name="Path 4873" d="M576.451,487.443l-2.851-.061c0-.364.3-9.1,5.762-13.282l1.7,2.244C576.754,479.68,576.451,487.322,576.451,487.443Z" transform="translate(-508.099 -471.553)" fill="#152646"/>
          <path id="Path_4874" data-name="Path 4874" d="M513.068,509.479c-9.4,0-13.525-3.821-13.768-4.063l1.941-2.062c.061.061,4.973,4.488,16.557,2.911,7.217-.971,12.918-3.942,17.528-6.307,3.275-1.7,6.065-3.154,8.551-3.457l.364,2.789c-2,.243-4.609,1.577-7.642,3.154-4.791,2.487-10.735,5.58-18.437,6.611A30.887,30.887,0,0,1,513.068,509.479Z" transform="translate(-478.861 -480.368)" fill="#152646"/>
          <path id="Path_4875" data-name="Path 4875" d="M520.557,526.829a26.271,26.271,0,0,1-3.457-.122l.182-2.85a54.258,54.258,0,0,0,11.766-.606c1.82-.364,4.245-1.092,6.732-1.819,5.519-1.7,10.735-3.275,13.707-2.244l-.91,2.669c-2.123-.728-7.581.97-11.948,2.305-2.608.788-5.095,1.516-7.035,1.88A45.176,45.176,0,0,1,520.557,526.829Z" transform="translate(-485.866 -489.166)" fill="#152646"/>
          <path id="Path_4876" data-name="Path 4876" d="M525.629,541.864c-3.336,0-6.186-.06-6.429-.06l.06-2.79c.121,0,11.706.243,15.951-.243l1.638-.182c5.337-.546,9.279-.91,11.22-.364l-.789,2.669c-1.577-.485-6.55.061-10.189.424l-1.637.182A91.826,91.826,0,0,1,525.629,541.864Z" transform="translate(-486.692 -496.68)" fill="#152646"/>
        </g>
        <path id="Path_4877" data-name="Path 4877" d="M606.527,514.691a.7.7,0,0,1-.728-.728,33.379,33.379,0,0,0-1.941-8.491,50.823,50.823,0,0,0-11.887-18.619c-16.982-17.285-37.845-14.5-38.027-14.434a.738.738,0,1,1-.243-1.456c.243-.061,21.773-2.972,39.3,14.859,13.525,13.767,14.253,27.535,14.313,28.141a.794.794,0,0,1-.788.728Z" transform="translate(-415.179 -421.836)" fill="#437efd"/>
        <path id="Path_4878" data-name="Path 4878" d="M538.663,524.882h-26.5l-2.365-16.618c-2.062-.788-10.128-4.367-9.7-13.161.364-6.732,3.336-8.976,6.853-11.584a28.472,28.472,0,0,0,5.095-4.488.73.73,0,1,1,1.091.97,36.017,36.017,0,0,1-5.337,4.731c-3.336,2.487-5.944,4.427-6.247,10.492a10.643,10.643,0,0,0,4.306,9.219,16.132,16.132,0,0,0,4.791,2.608l.424.121,2.365,16.254H537.51a250.2,250.2,0,0,0,5.883-33.66l.061-.546L544,489.1c8.673-1.88,17.528,2.729,25.594,13.4a79.385,79.385,0,0,1,9.522,16.618.749.749,0,0,1-1.395.546c-.121-.3-13.525-32.75-32.872-29.233-.364,3.214-2.183,19.711-6,33.9Z" transform="translate(-394.318 -424.991)" fill="#437efd"/>
        <path id="Path_4879" data-name="Path 4879" d="M502.226,413.777s6.853-.971,14.98,7.157a18.639,18.639,0,0,1,5.762-1.152s-7.521,9.158-6.975,10.674,4.245-1.638,6.55-.485,1.516,4.549.243,5.519a4.356,4.356,0,0,1-2.972.728s.061,11.766,12.8,12.312c0,0-1.152,10.553-14.495,12.8-9.158,1.577-13.161-3.214-13.161-3.214s9.522-5.034,6.186-19.529c0,0-8.976.3-10.432-1.577-1.395-1.88-3.639-8.127-3.154-11.645S501.317,415.475,502.226,413.777Z" transform="translate(-393.301 -399.401)" fill="#afb2d9"/>
        <path id="Path_4880" data-name="Path 4880" d="M460.518,529.264a20.305,20.305,0,0,1-5.579-.788.75.75,0,1,1,.364-1.456,16.749,16.749,0,0,0,13.4-1.516c9.643-5.7,13.343-20.257,13.343-20.378a.75.75,0,0,1,1.456.364,47.947,47.947,0,0,1-3.154,8.37c-2,4.185-5.58,9.825-10.917,12.979A17.566,17.566,0,0,1,460.518,529.264Z" transform="translate(-376.337 -435.135)" fill="#437efd"/>
        <path id="Path_4881" data-name="Path 4881" d="M460.561,543.425a37.393,37.393,0,0,1-9.522-1.334.75.75,0,1,1,.364-1.456c11.281,2.972,20.56.789,27.413-6.368a30.686,30.686,0,0,0,6.975-11.705.729.729,0,1,1,1.395.424C487.125,523.228,481.121,543.425,460.561,543.425Z" transform="translate(-374.803 -442.018)" fill="#437efd"/>
        <path id="Path_4882" data-name="Path 4882" d="M434.657,518.978s-13.585-9.461-21.833-24.684C410.155,489.442,409,487.8,409,487.8l-1.516.728s-2.85-5.155-5.7-5.034c-1.274.061.606,3.214,1.395,4.306.728,1.092.97,1.941.607,2.669a1.915,1.915,0,0,1-.789.97l-1.7,1.395s2.062,3.639,3.942,4.306,5.58,6.611,7.884,10.189c4.246,6.611,14.616,18.134,18.316,19.65A15.174,15.174,0,0,0,434.657,518.978Z" transform="translate(-355.449 -426.851)" fill="#afb2d9"/>
        <path id="Path_4883" data-name="Path 4883" d="M498.906,554.5l.97,7.278s-41.787,77.085-31.78,150.531c0,0,16.254-22.258,43.243-19.286s36.814,13.949,65.137,5.095a49.036,49.036,0,0,0,33.417-34.752s-38.512-3.518-56.1-52.1c-5.64-15.648-18.013-42.455-29.536-49.672l1.152-7.035Z" transform="translate(-381.125 -454.791)" fill="#152646"/>
        <path id="Path_4884" data-name="Path 4884" d="M538.248,896.161l12.494-.06s2.669,11.4,4.245,15.769.607,9.825.607,9.825l-3.4-.121s-.607-6.975-2.244-6.672-2.487,3.821-5.095,3.821H526.3s13.525-5.883,15.344-8.794C543.464,906.956,538.248,896.161,538.248,896.161Z" transform="translate(-404.638 -589.214)" fill="#152646"/>
        <path id="Path_4885" data-name="Path 4885" d="M602.742,590.757,617.48,583.6c.121,4.852,14.434,20.014,14.434,20.014-6.974,1.273-14.01,8.43-20.8,12.311a26.425,26.425,0,0,1-12.737,3.7s-2.608.424-3.275-3.7c0,0,.546-19.286,1.031-22.015C596.677,591.181,602.742,590.757,602.742,590.757Z" transform="translate(-431.712 -466.243)" fill="#23e5a5"/>
        <path id="Path_4886" data-name="Path 4886" d="M606.229,542.069s3.336,15.708-6.065,23.956c-3.336,2.911-10.249,5.034-12.19,4.973-1.88-.06-6.368-.728-8.855,1.213-2.486,2-2.729,7.1-2,6.975s1.638-3.457,3.4-3.821l1.759-.3s-2.911,5.216-5.276,7.217c-2.426,2-3.457,3.032-2.972,3.578s3.578-.3,4.731-.849a14.637,14.637,0,0,0,5.034-4.852,7.559,7.559,0,0,1-2.244,3.7,8.7,8.7,0,0,1-3.881,2,18.414,18.414,0,0,0,3.578-.243,9.578,9.578,0,0,0,2.972-1.759A9.907,9.907,0,0,1,583,585.191a.757.757,0,0,0-.425.607s5.883-1.759,8.673-6.126,7.46-2,16.315-11.1,8.551-23.774,7.7-28.93A13.117,13.117,0,0,0,606.229,542.069Z" transform="translate(-423.372 -448.911)" fill="#afb2d9"/>
        <path id="Path_4887" data-name="Path 4887" d="M528.59,935.533c-4.973,0-5.094-.121-5.337-.3a.7.7,0,0,1,0-1.031.8.8,0,0,1,.728-.182c1.092.122,11.948.061,16.617,0h3.275c1.334,0,2.972-2.062,3.457-2.729a.74.74,0,1,1,1.213.849c-.243.364-2.365,3.4-4.731,3.4h-3.275C534.958,935.472,531.137,935.533,528.59,935.533Zm-4.246-1.395Z" transform="translate(-403.349 -602.932)" fill="#437efd"/>
        <path id="Path_4888" data-name="Path 4888" d="M474.123,666.922h-.061a.733.733,0,0,1-.667-.789c5.216-49.49,29.475-93.4,29.718-93.885a.76.76,0,0,1,1.334.728c-.243.425-24.32,44.092-29.536,93.278A.9.9,0,0,1,474.123,666.922Z" transform="translate(-383.816 -461.624)" fill="#437efd"/>
        <path id="Path_4889" data-name="Path 4889" d="M697.7,852.112l9.158-8.612,19.59,19.589-2.426,2.487s-4.367-5.641-5.944-4c-1.4,1.516,1.82,5.276,0,8.187s-14.92,12.736-14.92,12.736,7.157-18.559,2.608-23.107C701.217,854.9,697.7,852.112,697.7,852.112Z" transform="translate(-472.086 -568.516)" fill="#152646"/>
        <path id="Path_4890" data-name="Path 4890" d="M706.936,899a.592.592,0,0,1-.546-.243.7.7,0,0,1,.122-1.031c.121-.121,14.07-11.766,16.072-13.949,1.455-1.577.182-5.458-.364-6.853a.733.733,0,1,1,1.334-.607c.243.607,2.426,5.944.121,8.491-2.062,2.244-15.648,13.585-16.254,14.071A1.145,1.145,0,0,1,706.936,899Z" transform="translate(-475.439 -581.259)" fill="#437efd"/>
        <g id="Group_1557" data-name="Group 1557" transform="translate(106.668 28.877)">
          <path id="Path_4891" data-name="Path 4891" d="M501.591,437.826a5,5,0,0,0,1.88-.061,1.015,1.015,0,0,1,1.274.546,1,1,0,0,1,.182.667,1.53,1.53,0,0,1,1.637-.3c1.031.364,1.334,2.3,1.82,2.608,0,0-2.487,2.244-4.852.91C501.288,440.8,501.591,437.826,501.591,437.826Z" transform="translate(-501.577 -437.711)" fill="#152646"/>
          <path id="Path_4892" data-name="Path 4892" d="M503.5,440l3.76,1.638a2.918,2.918,0,0,1-2.487-.182C503.5,440.728,503.5,440,503.5,440Z" transform="translate(-502.334 -438.612)" fill="#f8f9fa"/>
        </g>
        <path id="Path_4893" data-name="Path 4893" d="M520.2,454.052s3.457-.243,4.609-1.152c0,0-.606,4.124-4,5.155Z" transform="translate(-402.238 -414.811)" fill="#152646" opacity="0.47"/>
        <g id="Group_1558" data-name="Group 1558" transform="translate(101.889 12.82)">
          <ellipse id="Ellipse_333" data-name="Ellipse 333" cx="5.58" cy="4.609" rx="5.58" ry="4.609" transform="translate(0 10.567) rotate(-71.246)" fill="#437efd"/>
          <path id="Path_4894" data-name="Path 4894" d="M499.8,424.525a4.078,4.078,0,0,1-1.456-.242,4.775,4.775,0,0,1-2.911-2.911,6.52,6.52,0,0,1,0-4.549,7.058,7.058,0,0,1,2.79-3.639,4.7,4.7,0,0,1,4.064-.546c2.668.91,4,4.306,2.911,7.52a7.057,7.057,0,0,1-2.79,3.639A5.615,5.615,0,0,1,499.8,424.525Zm1.091-11.038a3.851,3.851,0,0,0-2.062.607,5.615,5.615,0,0,0-2.3,3.033,5.88,5.88,0,0,0,0,3.821,3.642,3.642,0,0,0,2.183,2.244,3.687,3.687,0,0,0,3.154-.425,5.615,5.615,0,0,0,2.3-3.033c.91-2.608-.121-5.337-2.183-6.065A3.44,3.44,0,0,0,500.893,413.487Z" transform="translate(-494.22 -411.689)" fill="#fbfbfb"/>
        </g>
        <g id="Group_1559" data-name="Group 1559" transform="translate(112.658 18.309)">
          <ellipse id="Ellipse_334" data-name="Ellipse 334" cx="5.58" cy="4.609" rx="5.58" ry="4.609" transform="translate(0 10.567) rotate(-71.246)" fill="#437efd"/>
          <path id="Path_4895" data-name="Path 4895" d="M517.541,433.625a3.56,3.56,0,0,1-1.4-.243,4.773,4.773,0,0,1-2.911-2.911,6.517,6.517,0,0,1,0-4.549,7.057,7.057,0,0,1,2.79-3.639,4.7,4.7,0,0,1,4.064-.546c2.669.91,4,4.306,2.911,7.52h0A6.131,6.131,0,0,1,517.541,433.625Zm1.152-11.038a3.851,3.851,0,0,0-2.062.607,5.616,5.616,0,0,0-2.3,3.032,5.882,5.882,0,0,0,0,3.821,3.642,3.642,0,0,0,2.183,2.244c2.123.728,4.548-.849,5.458-3.457h0c.91-2.608-.121-5.337-2.183-6.065A3.742,3.742,0,0,0,518.693,422.587Z" transform="translate(-511.994 -420.759)" fill="#fbfbfb"/>
        </g>
        <g id="Group_1560" data-name="Group 1560" transform="translate(112.019 20.803)">
          <path id="Path_4896" data-name="Path 4896" d="M510.6,425.371a2,2,0,0,1,2.366,1.334" transform="translate(-510.479 -424.763)" fill="#437efd"/>
          <path id="Path_4897" data-name="Path 4897" d="M512.341,426.522a1.415,1.415,0,0,0-1.7-.97l-.243-1.092a2.545,2.545,0,0,1,3.032,1.7Z" transform="translate(-510.4 -424.398)" fill="#fbfbfb"/>
        </g>
        <path id="Path_4898" data-name="Path 4898" d="M534.562,437.488l-1.092-.364c.243-.667-2.244-2.184-4.67-3.033l.364-1.092C530.68,433.546,535.35,435.365,534.562,437.488Z" transform="translate(-405.622 -406.98)" fill="#fbfbfb"/>
        <path id="Path_4899" data-name="Path 4899" d="M498.362,419.421s.3-2.183,1.516-3.033c1.152-.849,1.638-.789,1.638-.789l-2.487,7.1A5.1,5.1,0,0,1,498.362,419.421Z" transform="translate(-393.621 -400.132)" fill="#fbfbfb"/>
        <path id="Path_4900" data-name="Path 4900" d="M516.073,428.52s.3-2.184,1.516-3.033c1.152-.849,1.638-.788,1.638-.788l-2.487,7.1A5.925,5.925,0,0,1,516.073,428.52Z" transform="translate(-400.598 -403.713)" fill="#fbfbfb"/>
        <path id="Path_4901" data-name="Path 4901" d="M597.1,572.582s-.728-22.258,11.948-27.535c12.615-5.337,31.9,4.731,40.938,16.5S672.239,581.619,678,582.1c5.762.425,12.8-4,12.8-4s-6.49,8.733-2,15.951c0,0-9.765,3.275-19.833.424s-18.68-12.373-18.68-12.373,8.733,16.679,18.377,22.683,14.192,5.58,14.192,5.58,1.152,11.887-8.309,16.375c0,0-22.319-14.738-37.056-37.966-14.8-23.289-18.073-24.5-23.956-22.622C613.47,566.154,604.251,572.885,597.1,572.582Z" transform="translate(-432.494 -450.494)" fill="#23e5a5"/>
        <path id="Path_4902" data-name="Path 4902" d="M746.819,616.351s7.217-3.578,2-15.951C748.821,600.461,741.058,607.92,746.819,616.351Z" transform="translate(-490.577 -472.854)" fill="#437efd"/>
        <path id="Path_4903" data-name="Path 4903" d="M642.3,616.7a11.864,11.864,0,0,1-8.127,7.885c-6.732,2.122-12.676,4.427-12.676,4.427S634.539,617.852,642.3,616.7Z" transform="translate(-442.1 -479.268)" fill="#437efd"/>
        <path id="Path_4904" data-name="Path 4904" d="M605.069,622.854l-.121-.3c-1.274-3.093-3.093-8.734-1.4-11.4a3.363,3.363,0,0,1,2.608-1.456c4.852-.364,7.581,8.248,7.7,8.612l.06.243Zm1.395-12.554h-.243a2.555,2.555,0,0,0-2.183,1.153c-1.092,1.758-.607,5.579,1.334,10.613l7.824-3.76C612.772,616.971,610.285,610.3,606.464,610.3Z" transform="translate(-434.767 -476.506)" fill="#437efd"/>
        <path id="Path_4905" data-name="Path 4905" d="M628.423,612.541l-.121-.3c-.182-.485-.364-.91-.546-1.395-1.456-3.639-2.729-6.732-1.7-8.43a3,3,0,0,1,2.487-1.213h.3c4.609,0,8.248,6.732,8.37,7.035l.121.243Zm.425-10.795h-.3a2.466,2.466,0,0,0-2.062.91c-.91,1.455.364,4.609,1.7,7.945a8.6,8.6,0,0,0,.485,1.092l7.885-3.578C635.882,606.962,632.668,601.746,628.847,601.746Z" transform="translate(-443.746 -473.168)" fill="#437efd"/>
        <path id="Path_4906" data-name="Path 4906" d="M658.459,591.475a.747.747,0,0,1-.606-.3c-.122-.121-10.371-14.98-22.319-22.137-4.489-2.669-8.006-3.518-10.493-2.487-3.335,1.334-4.549,5.883-5.4,9.219a19.162,19.162,0,0,1-.788,2.607.749.749,0,1,1-1.395-.546c.243-.667.485-1.577.728-2.486.971-3.579,2.244-8.552,6.308-10.189,2.972-1.213,6.854-.364,11.827,2.547,12.251,7.338,22.683,22.44,22.8,22.561a.758.758,0,0,1-.182,1.031A.969.969,0,0,1,658.459,591.475Z" transform="translate(-440.486 -458.773)" fill="#437efd"/>
        <path id="Path_4907" data-name="Path 4907" d="M609,585.572s6.368-2.85,8.976-4.852c.061-.06.182-.121.243-.182,2.426-2.062.788,4.367-3.154,5.883C611.062,587.937,609,585.572,609,585.572Z" transform="translate(-437.181 -464.879)" fill="#afb2d9"/>
        <path id="Path_4908" data-name="Path 4908" d="M681.339,646.024a.691.691,0,0,1-.485-.182,99.546,99.546,0,0,1-19.407-22.865.76.76,0,0,1,1.334-.728,97.786,97.786,0,0,0,19.1,22.44.7.7,0,0,1,.061,1.031A.673.673,0,0,1,681.339,646.024Z" transform="translate(-457.786 -481.299)" fill="#437efd"/>
        <path id="Path_4909" data-name="Path 4909" d="M711.636,675.4a.455.455,0,0,1-.3-.061c-2.85-1.395-9.583-7.52-9.886-7.763a.73.73,0,1,1,.97-1.092c.061.06,6.853,6.247,9.522,7.52a.731.731,0,0,1,.364.97A.707.707,0,0,1,711.636,675.4Z" transform="translate(-473.468 -498.791)" fill="#437efd"/>
        <g id="Group_1561" data-name="Group 1561" transform="translate(180.703 144.679)">
          <path id="Path_4910" data-name="Path 4910" d="M634.778,642.447a.769.769,0,0,1-.364-.061c-8.066-3.942-10.613-12.312-10.735-12.676a.825.825,0,0,1,1.577-.485c0,.061,2.487,8.066,9.825,11.645a.819.819,0,0,1,.364,1.152A.683.683,0,0,1,634.778,642.447Z" transform="translate(-623.649 -628.649)" fill="#152646"/>
          <path id="Path_4911" data-name="Path 4911" d="M639.643,652.385a3.942,3.942,0,1,1,3.942-3.942A3.934,3.934,0,0,1,639.643,652.385Zm0-6.732a2.782,2.782,0,0,0-2.79,2.79,2.822,2.822,0,0,0,2.79,2.79,2.79,2.79,0,0,0,0-5.58Z" transform="translate(-628.391 -634.886)" fill="#152646"/>
          <path id="Path_4912" data-name="Path 4912" d="M648.408,669.409a4.5,4.5,0,0,1-3.214-1.334l-17.649-17.649a4.576,4.576,0,0,1,0-6.429l6.853-6.853a4.577,4.577,0,0,1,6.429,0l17.648,17.649a4.576,4.576,0,0,1,0,6.429l-6.853,6.854A4.5,4.5,0,0,1,648.408,669.409Zm-10.8-32.629a3.541,3.541,0,0,0-2.487,1.031l-6.853,6.853a3.552,3.552,0,0,0,0,5.034l17.649,17.649a3.551,3.551,0,0,0,5.034,0l6.854-6.853a3.551,3.551,0,0,0,0-5.034l-17.649-17.649A3.793,3.793,0,0,0,637.612,636.78Zm20.5,24.077Z" transform="translate(-624.662 -631.473)" fill="#152646"/>
        </g>
        <path id="Path_4913" data-name="Path 4913" d="M724.8,670.076s7.217-10.553,8.309-16.375a13.4,13.4,0,0,1-.364,10.129A11.324,11.324,0,0,1,724.8,670.076Z" transform="translate(-482.75 -493.828)" fill="#437efd"/>
        <g id="Group_1562" data-name="Group 1562" transform="translate(0 1.255)">
          <path id="Path_4914" data-name="Path 4914" d="M329.1,422.087h0a3.391,3.391,0,0,1-3.4-3.4c.061-6.611,4.488-20.439,21.045-25.169,19.772-5.64,30.749,8.127,31.174,8.673a3.415,3.415,0,0,1-5.4,4.185c-.364-.425-8.673-10.674-23.956-6.307-15.89,4.549-16.133,18.559-16.133,18.68A3.288,3.288,0,0,1,329.1,422.087Z" transform="translate(-325.7 -392.167)" fill="#437efd"/>
          <path id="Path_4915" data-name="Path 4915" d="M349.392,442.789h-.182A3.394,3.394,0,0,1,346,439.211c.243-4.427,3.639-13.464,15.162-16.193a19.687,19.687,0,0,1,20.075,6.671,3.378,3.378,0,1,1-5.4,4.064,12.876,12.876,0,0,0-13.04-4.124c-3.942.91-6.732,2.85-8.43,5.7a9.9,9.9,0,0,0-1.456,4.245A3.6,3.6,0,0,1,349.392,442.789Z" transform="translate(-333.684 -404.075)" fill="#437efd"/>
        </g>
        <path id="Path_4916" data-name="Path 4916" d="M621.026,945.135H455.817a3.52,3.52,0,0,1-3.517-3.518h0a3.52,3.52,0,0,1,3.517-3.517H621.026a3.52,3.52,0,0,1,3.518,3.517h0A3.52,3.52,0,0,1,621.026,945.135Z" transform="translate(-375.518 -605.742)" fill="#437efd"/>
      </g>
      <g id="Group_1577" data-name="Group 1577" transform="translate(26.088 0)" opacity="0.6">
        <path id="Path_4917" data-name="Path 4917" d="M940.858,586.236h-109.9a2.045,2.045,0,0,1-2.062-2.062V545.662a2.045,2.045,0,0,1,2.062-2.062h109.9a2.045,2.045,0,0,1,2.062,2.062v38.512A2.045,2.045,0,0,1,940.858,586.236Z" transform="translate(-383.676 -340.79)" fill="#b4c4f0" opacity="0.55"/>
        <path id="Path_4918" data-name="Path 4918" d="M231.664,871.544H174.472a2.976,2.976,0,0,1-2.972-2.971h0a2.977,2.977,0,0,1,2.972-2.972h57.192a2.977,2.977,0,0,1,2.972,2.972h0A2.976,2.976,0,0,1,231.664,871.544Z" transform="translate(-124.982 -467.5)" fill="#437efd"/>
        <path id="Path_4919" data-name="Path 4919" d="M877.774,668.9s12.554,2.669,14.07,15.1-3.275,18.013-4.063,23.956,5.883,12.069,10.128,15.768,4.791,9.279,1.334,15.466c-3.518,6.247-12.736,9.643-23.41,9.643s-16.133-4.427-16.133-4.427,15.587-4.913,16.8-17.285-5.58-19.286-7.278-32.265C867.463,681.818,876.743,669.082,877.774,668.9Z" transform="translate(-395.796 -390.097)" fill="#b4c4f0"/>
        <path id="Path_4920" data-name="Path 4920" d="M891.028,814.675S879.5,842.027,860.4,843.968l.97,3.335h28.748l9.947-27.838s1.819-4.549-1.88-4.73C894.242,814.553,891.028,814.675,891.028,814.675Z" transform="translate(-396.071 -447.445)" fill="#8dade3"/>
        <path id="Path_4921" data-name="Path 4921" d="M344.7,546.943s8.855,6.065,18.255-.243c0,0-1.577,6.672-10.128,6.732C344.4,553.493,344.7,546.943,344.7,546.943Z" transform="translate(-193.137 -342.01)" fill="#b4c4f0"/>
        <path id="Path_4922" data-name="Path 4922" d="M344.5,534.638l8.612-5.64v-8.43s-.243-1.638,2.123-3.093.849-4.124-1.334-3.942c-2.244.182-1.516,2.426-2.365,2.426-.91-.061-1.152-2.365.485-3.4,2.123-1.334,5.58-.728,6.125,2.122.667,3.4-2.911,4.549-3.214,5.762s.121,8.491.121,8.491l8.006,4.973-.91,1.759-8.066-4.973-8.309,5.64Z" transform="translate(-193.059 -328.31)" fill="#214079" opacity="0.58"/>
        <path id="Path_4923" data-name="Path 4923" d="M363.758,598.991l4.488-1.334L367.579,570s.667-3.76,3.76-3.275a69.945,69.945,0,0,1,7.763,1.941s5.458-4.245,1.941-12.372L362.06,547.5l1.516.971s-.91,5.883-5.944,7.278-7.035,1.213-7.218,1.213.485,6.428,3.518,9.4,6.611,7.339,3.882,13.161c-2.669,5.822-7.1,3.76-11.341,8.369s-4.973,11.4-4.973,11.4S354.539,601.538,363.758,598.991Z" transform="translate(-191.879 -342.325)" fill="#b4c4f0" opacity="0.6"/>
        <path id="Path_4924" data-name="Path 4924" d="M228.782,860.9c0,2.729-.182,4.609-.182,4.609l19.711.425c-1.88-3.518-6.186-4.306-6.186-4.306Z" transform="translate(-147.452 -465.651)" fill="#6288da"/>
        <path id="Path_4925" data-name="Path 4925" d="M197.071,852.1s1.577,3.639,1.213,4.367c-.3.728-7.035-4.791-10.068-8.43-3.032-3.578-5.216-6.065-5.216-6.065L186.639,839C186.639,839.061,193.735,849.674,197.071,852.1Z" transform="translate(-129.508 -457.032)" fill="#6288da"/>
        <path id="Path_4926" data-name="Path 4926" d="M212.677,681.2s-3.7,5.4-2.365,11.22c1.395,5.822,15.1,38.33,15.1,38.33l10.674-4.367-.364-7.521L241,725.11l6.853-.667-8.43-34.873-21.531.121-2.668-2.3Z" transform="translate(-140.141 -394.937)" fill="#698ed2"/>
        <path id="Path_4927" data-name="Path 4927" d="M247.471,592.046a39.109,39.109,0,0,1,3.093,15.708c0,9.34-1.152,13.161-1.152,13.161H229.7s16.86-17.164,14.313-21.53-6.671-3.518-10.068.121S224,611.454,224,611.454l8.37-19.954Z" transform="translate(-145.642 -359.639)" fill="#b4c4f0"/>
        <path id="Path_4928" data-name="Path 4928" d="M261.3,566.527a.583.583,0,0,1-.546-.364.565.565,0,0,1,.364-.728c4.245-1.455,3.882-4.852,3.578-7.581-.061-.364-.061-.667-.121-.97a6.255,6.255,0,0,1,1.213-4.185,11.579,11.579,0,0,1-5.58-4.488c-2.911-5.034-7.278-5.458-7.46-5.458a.577.577,0,0,1,.061-1.152c.182,0,5.155.424,8.37,6,1.759,2.972,5.64,4.245,5.7,4.245l.91.3-.728.667a5.313,5.313,0,0,0-1.456,3.942,6.04,6.04,0,0,0,.121.97c.3,2.79.788,7.035-4.306,8.794Z" transform="translate(-156.739 -340.003)" fill="#437efd"/>
        <path id="Path_4929" data-name="Path 4929" d="M238.162,646.873l-.364-.243c-.182-.122-16.8-10.856-23.107-15.587-2.3-1.759-3.518-3.639-3.7-5.641a6,6,0,0,1,1.637-4.366l17.042-19.772c.243-.243,3.457-3.942,7.7-1.213a4.551,4.551,0,0,1,2.244,3.093,6.236,6.236,0,0,1-1.092,4.367c-.425.606-10.674,13.949-12.372,15.526-.91.849-.91,1.4-.788,1.638l19.711,15.162Zm-4-46.7a5.009,5.009,0,0,0-3.639,1.819h0l-17.1,19.832a5.03,5.03,0,0,0-1.334,3.517c.121,1.638,1.213,3.275,3.214,4.792,5.762,4.367,20.075,13.646,22.683,15.283l5.337-5.519-18.8-14.435a1.58,1.58,0,0,1-.425-1.152,2.9,2.9,0,0,1,1.213-2.123c1.334-1.213,8.612-10.553,12.251-15.344a5.491,5.491,0,0,0,.91-3.518,3.852,3.852,0,0,0-1.759-2.365A4.43,4.43,0,0,0,234.159,600.173Zm-4.124,1.455Z" transform="translate(-140.517 -362.611)" fill="#437efd"/>
        <path id="Path_4930" data-name="Path 4930" d="M260.662,681.559l1.819-4.973a6.21,6.21,0,0,1-2.608-1.274,2.492,2.492,0,0,1-1.152-2c-.061-.485-.121-.91-1.516-1.637a.583.583,0,1,1,.546-1.031c1.759.909,2,1.638,2.123,2.487a1.412,1.412,0,0,0,.728,1.213c1.638,1.274,2.547,1.091,2.547,1.091l.971-.182-.3.91-1.152,3.275c1.456-.728,3.093-1.82,3.336-2.669.061-.3.182-.606.242-.909.242-.971.849-2.911.546-3.215-.606-.606-5.034-4.912-5.095-4.973a.558.558,0,0,1,.788-.788c.182.183,4.488,4.306,5.095,4.974.788.788.3,2.426-.243,4.306-.061.3-.182.606-.243.91-.546,2.062-4.731,3.821-5.216,4Z" transform="translate(-158.589 -389.231)" fill="#437efd"/>
        <path id="Path_4931" data-name="Path 4931" d="M236.069,674.257H215.63a4.426,4.426,0,0,1-4.427-3.275c-.061-.121-6.732-18.68-8.612-23.714-.788-2.062-.849-3.76-.121-4.913a3.171,3.171,0,0,1,2.062-1.456h3.093a.546.546,0,1,1,0,1.092h-2.972a1.989,1.989,0,0,0-1.213.91c-.485.849-.425,2.183.243,3.942,1.88,5.034,8.551,23.593,8.612,23.775a3.419,3.419,0,0,0,3.336,2.487h20.318c.121,0,2.365.242,3.517-3.154l1.274-3.881a.575.575,0,1,1,1.092.364l-1.274,3.881C239.344,673.954,236.8,674.257,236.069,674.257Z" transform="translate(-136.968 -379.079)" fill="#437efd"/>
        <path id="Path_4932" data-name="Path 4932" d="M255.694,659.315h-.121a.559.559,0,0,1-.425-.667l3.457-16.132a1.773,1.773,0,0,0-.182-1.4,2.617,2.617,0,0,0-2.183-.728H234.346a.546.546,0,0,1,0-1.092H256.24a3.845,3.845,0,0,1,3.093,1.153,2.952,2.952,0,0,1,.364,2.3l-3.457,16.072A.575.575,0,0,1,255.694,659.315Z" transform="translate(-149.498 -378.449)" fill="#437efd"/>
        <path id="Path_4933" data-name="Path 4933" d="M264.427,622.424h-.121a.559.559,0,0,1-.425-.667c3.7-17.164-1.577-26.5-1.638-26.625a.572.572,0,0,1,.97-.607c.243.364,5.519,9.825,1.759,27.413A.5.5,0,0,1,264.427,622.424Z" transform="translate(-160.656 -360.723)" fill="#437efd"/>
        <path id="Path_4934" data-name="Path 4934" d="M224.836,616.081a.222.222,0,0,1-.182-.061.618.618,0,0,1-.364-.727l3.942-11.038a.575.575,0,0,1,1.092.364l-3.942,11.038A.617.617,0,0,1,224.836,616.081Z" transform="translate(-145.75 -364.509)" fill="#437efd"/>
        <path id="Path_4935" data-name="Path 4935" d="M210.3,703.454a.53.53,0,0,1-.546-.364l-3.093-8.976a16.912,16.912,0,0,1,3.457-16.618.566.566,0,0,1,.788,0,.517.517,0,0,1,0,.788,14.522,14.522,0,0,0-2.669,4.185,15.992,15.992,0,0,0-.485,11.281l3.032,8.915a.565.565,0,0,1-.364.728C210.479,703.394,210.358,703.454,210.3,703.454Z" transform="translate(-138.489 -393.416)" fill="#437efd"/>
        <path id="Path_4936" data-name="Path 4936" d="M230.62,738.245l-.243-.607s-1.031-2.365-2.608-5.943a.558.558,0,0,1,1.031-.425c1.092,2.547,1.941,4.428,2.365,5.337a58.453,58.453,0,0,1,11.705-5.337l-.91-8.915,5.883,7.338a15.786,15.786,0,0,1,6-.606L245.54,694.76a.559.559,0,1,1,1.092-.243l8.733,36.086-.91-.242a13.646,13.646,0,0,0-6.671.546l-.364.121-3.942-4.912.606,6-.424.121a54.779,54.779,0,0,0-12.433,5.7Z" transform="translate(-147.107 -400.005)" fill="#437efd"/>
        <path id="Path_4937" data-name="Path 4937" d="M199.738,818.831l-2.123-2.3c-.061-.061-3.639-4-5.762-6.732a27.679,27.679,0,0,1-3.033-4.67l-.121-.364.243-.242c14.616-14.8,36.45-37.36,37.845-39.968-.667-1.334-3.76-6-4.973-7.763a.572.572,0,0,1,.97-.607c.182.3,4.549,6.792,5.155,8.127.243.546.485,1.152-18.923,21.288-8.551,8.915-17.285,17.77-18.983,19.407a25.941,25.941,0,0,0,2.669,4.064c1.092,1.395,2.608,3.154,3.76,4.488-.789-2.426-1.516-5.519-.607-6.55.607-.728,8.006-6.853,20.014-16.921,8.794-7.338,17.891-14.92,19.954-16.739,4.245-3.821,4.185-7.157,3.578-9.946-.667-3.093-2.79-10.917-2.85-11.038a.559.559,0,0,1,1.092-.243c0,.061,2.183,8.006,2.85,11.1.606,2.911.728,6.732-3.942,11.038-2.062,1.88-11.159,9.461-19.953,16.8-8.915,7.459-19.165,16.011-19.832,16.678-.606.667.424,4.792,1.819,8.188Z" transform="translate(-131.751 -422.672)" fill="#437efd"/>
        <path id="Path_4938" data-name="Path 4938" d="M232.14,783.583h0a.524.524,0,0,1-.546-.606c.3-6.429.3-17.71.3-17.831a.546.546,0,1,1,1.092,0c0,.121,0,11.4-.3,17.891A.544.544,0,0,1,232.14,783.583Z" transform="translate(-148.626 -427.755)" fill="#437efd"/>
        <path id="Path_4939" data-name="Path 4939" d="M243.82,839.01l-14.92-.788,1.638-27.292a.577.577,0,0,1,1.152.061l-1.577,26.14,7.945.425a6.427,6.427,0,0,1-2.244-5.094c.121-4.367,4.913-29.051,5.095-30.143a.559.559,0,0,1,1.092.242c-.061.243-4.973,25.655-5.095,29.9a5.509,5.509,0,0,0,3.4,5.216Z" transform="translate(-147.57 -442.426)" fill="#437efd"/>
        <path id="Path_4940" data-name="Path 4940" d="M265.638,621.925a.582.582,0,0,1-.546-.424.558.558,0,0,1,.425-.667c16.011-3.4,29.415-17.649,31.174-19.529a9.96,9.96,0,0,0-2.972-4.548c-11.22,10.31-25.9,14.98-26.079,15.041a.575.575,0,1,1-.364-1.091c.121-.061,14.92-4.792,26.018-15.1l.364-.3.364.3c.121.121,3.154,2.426,3.821,5.761l.061.3-.182.182c-.121.182-14.5,16.375-31.962,20.135C265.7,621.925,265.7,621.925,265.638,621.925Z" transform="translate(-161.807 -361.134)" fill="#437efd"/>
        <path id="Path_4941" data-name="Path 4941" d="M313.146,591.7a.462.462,0,0,1-.3-.122.661.661,0,0,1-.182-.788,57.573,57.573,0,0,1,4.124-5.459,15.6,15.6,0,0,1,4.609-2.85l.364-.182,1.759,2.184-3.154,2.3a.564.564,0,0,1-.667-.91l2.244-1.638-.485-.606A14.256,14.256,0,0,0,317.634,586c-1.4,1.456-3.942,5.277-4,5.277C313.51,591.64,313.328,591.7,313.146,591.7Z" transform="translate(-180.506 -356.019)" fill="#437efd"/>
        <path id="Path_4942" data-name="Path 4942" d="M317.629,595.878a.748.748,0,0,1-.485-.243.59.59,0,0,1,.182-.788c2.3-1.395,4.852-3.275,5.094-4,.667-2.183,2.608-3.942,4-5.216a7.2,7.2,0,0,0,1.395-1.455c-.182-.364-.364-.425-.425-.425-.546-.121-1.455.546-2.123.97a3.367,3.367,0,0,0-.485.364.572.572,0,0,1-.607-.971,3.393,3.393,0,0,1,.485-.3c.91-.667,2-1.456,3.032-1.152a1.789,1.789,0,0,1,1.213,1.091c.425.789-.425,1.577-1.7,2.729-1.334,1.213-3.093,2.79-3.7,4.731-.485,1.455-4.73,4.124-5.58,4.609A2.614,2.614,0,0,0,317.629,595.878Z" transform="translate(-182.26 -356.133)" fill="#437efd"/>
        <path id="Path_4943" data-name="Path 4943" d="M339.294,600.024a76.743,76.743,0,0,1-19.529-2.669l-.424-.121.607-21.833a.577.577,0,1,1,1.152.06l-.546,20.924a69.976,69.976,0,0,0,25.715,2.062,40.919,40.919,0,0,0,8.976-2c-.061-2.79-.242-19.772-.546-23.956-.243-2.911.243-5.034,1.4-6.186a2.612,2.612,0,0,1,2.123-.789c1.395.122,5.337.728,7.035.971a21.851,21.851,0,0,1,2-10.674l-17.467-8.673c-.667,1.759-3.032,6.307-10.189,6.307-7.1,0-8.916-4.488-9.34-6.307l-19.1,8.006V564.3h3.4c3.882,0,5.277,4.063,5.337,4.185a.575.575,0,1,1-1.092.364c-.061-.122-1.213-3.457-4.306-3.457H310V554.355l21.167-8.854.061.788c0,.243.606,6,8.37,6,7.884,0,9.279-6,9.279-6.065l.182-.728,19.711,9.764-.3.546c0,.06-2.972,5.58-2.062,11.281l.121.788-.788-.121c-.061,0-5.944-.91-7.7-1.031a1.489,1.489,0,0,0-1.274.485c-.485.485-1.334,1.88-1.031,5.276.364,4.549.546,23.592.546,24.381v.364l-.364.121C355.669,597.537,349.786,600.024,339.294,600.024Z" transform="translate(-179.483 -341.538)" fill="#437efd"/>
        <path id="Path_4944" data-name="Path 4944" d="M357.512,658.154H334.769a2.693,2.693,0,0,1-2.669-2.669v-5.216a2.692,2.692,0,0,1,2.669-2.669h22.743a2.692,2.692,0,0,1,2.669,2.669v5.216A2.693,2.693,0,0,1,357.512,658.154Zm-22.743-9.462a1.605,1.605,0,0,0-1.577,1.577v5.216a1.606,1.606,0,0,0,1.577,1.577h22.743a1.606,1.606,0,0,0,1.577-1.577v-5.216a1.606,1.606,0,0,0-1.577-1.577Z" transform="translate(-188.18 -381.715)" fill="#437efd"/>
        <path id="Path_4945" data-name="Path 4945" d="M141.712,658.154H118.969a2.693,2.693,0,0,1-2.669-2.669v-5.216a2.692,2.692,0,0,1,2.669-2.669h22.743a2.692,2.692,0,0,1,2.669,2.669v5.216A2.616,2.616,0,0,1,141.712,658.154Zm-22.743-9.462a1.606,1.606,0,0,0-1.577,1.577v5.216a1.606,1.606,0,0,0,1.577,1.577h22.743a1.606,1.606,0,0,0,1.577-1.577v-5.216a1.606,1.606,0,0,0-1.577-1.577Z" transform="translate(-103.261 -381.715)" fill="#437efd"/>
        <path id="Path_4946" data-name="Path 4946" d="M336.64,590.36a.551.551,0,0,1-.424-.182.567.567,0,0,1,.061-.789c5.4-4.549,10.432-13.343,10.492-13.464a.572.572,0,1,1,.97.606c-.182.364-5.216,9.036-10.735,13.767C336.883,590.3,336.762,590.36,336.64,590.36Z" transform="translate(-189.749 -353.404)" fill="#437efd"/>
        <path id="Path_4947" data-name="Path 4947" d="M205.2,644.7h39.482l-7.157,27.9H212.3l-9.643-26.989S201.927,644.7,205.2,644.7Z" transform="translate(-137.215 -380.574)" fill="#adc5f3"/>
        <path id="Path_4948" data-name="Path 4948" d="M233.721,764.785s7.035-.182,10.856,3.457c0,0-3.275-6-4.791-7.642l-6.186,3.275Z" transform="translate(-149.419 -426.182)" fill="#6288da"/>
        <path id="Path_4949" data-name="Path 4949" d="M269.665,621.6s1.213,5.459,5.762,6.611A60.888,60.888,0,0,1,267.3,631l1.092-8.855Z" transform="translate(-162.681 -371.484)" fill="#6288da"/>
        <path id="Path_4950" data-name="Path 4950" d="M238.266,541.206s-3.7,9.037,2.426,15.829c6.065,6.793,10.614,12.433,4.367,16.436a11.744,11.744,0,0,1-11.887.545s-3.518,7.1-10.614,5.095-9.643-11.644.546-20.8c1.4-1.273-.728-2-.97-7.217C221.83,545.876,227.47,537.507,238.266,541.206Z" transform="translate(-142.622 -339.488)" fill="#23e5a5"/>
        <circle id="Ellipse_335" data-name="Ellipse 335" cx="1.031" cy="1.031" r="1.031" transform="translate(167.998 233.195)" fill="#23e5a5"/>
        <circle id="Ellipse_336" data-name="Ellipse 336" cx="1.819" cy="1.819" r="1.819" transform="translate(156.899 237.32)" fill="#214079"/>
        <circle id="Ellipse_337" data-name="Ellipse 337" cx="1.274" cy="1.274" r="1.274" transform="translate(165.875 216.578)" fill="#214079"/>
        <circle id="Ellipse_338" data-name="Ellipse 338" cx="0.849" cy="0.849" r="0.849" transform="translate(162.418 248.6)" fill="#23e5a5"/>
        <circle id="Ellipse_339" data-name="Ellipse 339" cx="0.849" cy="0.849" r="0.849" transform="translate(145.8 215.547)" fill="#437efd"/>
        <path id="Path_4951" data-name="Path 4951" d="M360,585.487,364.306,583l-1.031,5.095Z" transform="translate(-199.159 -356.294)" fill="#23e5a5"/>
        <path id="Path_4952" data-name="Path 4952" d="M338.587,624.506,336.1,620.2l5.095,1.091Z" transform="translate(-189.754 -370.933)" fill="#23e5a5"/>
        <path id="Path_4953" data-name="Path 4953" d="M387.55,563.2l-.364,3.457-2.487-2.669Z" transform="translate(-208.879 -348.503)" fill="#437efd"/>
        <path id="Path_4954" data-name="Path 4954" d="M216.64,569.327h-.061a.543.543,0,0,1-.485-.606c.728-5.641,5.4-9.522,6.793-10.614-2.426-5.276-1.334-9.4,0-11.948a13.458,13.458,0,0,1,3.639-4.427.564.564,0,1,1,.667.91c-.3.242-7.763,5.822-3.093,15.466l.243.425-.425.3c-.061.061-5.883,4.064-6.671,10.068A.73.73,0,0,1,216.64,569.327Z" transform="translate(-142.527 -340.013)" fill="#437efd"/>
        <circle id="Ellipse_340" data-name="Ellipse 340" cx="1.819" cy="1.819" r="1.819" transform="translate(159.264 185.343)" fill="#437efd"/>
        <g id="Group_1564" data-name="Group 1564" transform="translate(0 183.576)">
          <path id="Path_4955" data-name="Path 4955" d="M151.565,580.8s1.152,28.748.788,28.687-8.37,3.7-23.653,1.638c0,0,7.157-3.093,7.945-9.34S141.012,582.559,151.565,580.8Z" transform="translate(-108.14 -539.004)" fill="#b4c4f0" opacity="0.6"/>
          <path id="Path_4956" data-name="Path 4956" d="M112.321,598.6c5.337.06,16.618,1.7,35.3-.3l-.243,4.428S123.42,604.85,112.2,602.3Z" transform="translate(-101.647 -545.891)" fill="#23e5a5"/>
          <path id="Path_4957" data-name="Path 4957" d="M129.5,546.943s8.855,6.065,18.255-.243c0,0-1.577,6.672-10.128,6.732S129.5,546.943,129.5,546.943Z" transform="translate(-108.453 -525.585)" fill="#b4c4f0"/>
          <path id="Path_4958" data-name="Path 4958" d="M129.3,534.638l8.612-5.64v-8.43s-.243-1.638,2.123-3.093.849-4.124-1.334-3.942c-2.244.182-1.516,2.426-2.365,2.426-.91-.061-1.152-2.365.485-3.4,2.123-1.334,5.58-.728,6.126,2.122.667,3.4-2.911,4.549-3.214,5.762s.121,8.491.121,8.491l8.006,4.973-.91,1.759-8.066-4.973-8.309,5.64Z" transform="translate(-108.376 -511.885)" fill="#214079" opacity="0.58"/>
          <path id="Path_4959" data-name="Path 4959" d="M124.154,600.024a76.741,76.741,0,0,1-19.529-2.669l-.425-.121.606-21.833a.577.577,0,0,1,1.152.06l-.546,20.924a69.977,69.977,0,0,0,25.715,2.062,40.926,40.926,0,0,0,8.976-2c-.061-2.79-.243-19.772-.546-23.956-.243-2.911.243-5.034,1.395-6.186a2.612,2.612,0,0,1,2.123-.789c1.395.122,5.337.728,7.035.971a21.849,21.849,0,0,1,2-10.674l-17.467-8.673c-.667,1.759-3.032,6.307-10.189,6.307-7.1,0-8.915-4.488-9.34-6.307l-19.1,8.006V564.3h3.4c3.882,0,5.276,4.063,5.337,4.185a.575.575,0,1,1-1.092.364c-.061-.122-1.213-3.457-4.306-3.457H94.8V554.355l21.166-8.854.061.788c0,.243.607,6,8.37,6,7.884,0,9.279-6,9.279-6.065l.182-.728,19.711,9.764-.3.546c0,.06-2.972,5.58-2.062,11.281l.121.788-.788-.121c-.061,0-5.944-.91-7.7-1.031a1.488,1.488,0,0,0-1.274.485c-.485.485-1.334,1.88-1.031,5.276.364,4.549.546,23.592.546,24.381v.364l-.364.121C140.529,597.537,134.586,600.024,124.154,600.024Z" transform="translate(-94.8 -525.113)" fill="#437efd"/>
          <circle id="Ellipse_341" data-name="Ellipse 341" cx="1.819" cy="1.819" r="1.819" transform="translate(28.748 1.768)" fill="#437efd"/>
          <path id="Path_4960" data-name="Path 4960" d="M150.224,574.8h7.46s1.213,8.006-3.7,8.188C149.071,583.23,150.224,574.8,150.224,574.8Z" transform="translate(-116.564 -536.643)" fill="#214079" opacity="0.58"/>
        </g>
        <path id="Path_4961" data-name="Path 4961" d="M929.619,765.279H929.5a.559.559,0,0,1-.425-.667c0-.061.607-2.79-3.4-6.247a.559.559,0,0,1,.728-.849c4.549,4,3.76,7.278,3.7,7.4C930.1,765.1,929.861,765.279,929.619,765.279Z" transform="translate(-421.683 -424.917)" fill="#437efd"/>
        <path id="Path_4962" data-name="Path 4962" d="M869.952,749.185c-5.883,0-13.4-.668-17.649-3.7-5.459-3.942-8.613-8.915-9.037-14.374-.485-6.065,2.426-12.736,8.066-18.255,6.671-6.55,5.761-10.432,2.123-17.71-2.79-5.64-2.911-16.739,1.516-23.714,2.972-4.731,7.7-7.156,13.585-7.036,5.944.121,10.735,2.062,14.131,5.7,5.762,6.126,6.065,15.284,5.943,18.923-.121,3.4-1.395,6.671-2.486,9.522-1.213,3.032-2.3,5.944-1.82,8.491.91,4.912,5.883,10.856,5.883,10.856a.559.559,0,0,1-.849.728c-.242-.242-5.216-6.186-6.186-11.4-.485-2.85.667-5.883,1.88-9.1a28.032,28.032,0,0,0,2.426-9.158c.122-2.729,0-12.13-5.64-18.134-3.214-3.4-7.7-5.216-13.342-5.337-5.519-.121-9.765,2.062-12.555,6.49-4.185,6.61-4.124,17.224-1.456,22.561,3.821,7.642,4.791,11.948-2.365,19.044-5.337,5.276-8.127,11.584-7.7,17.345.424,5.155,3.336,9.825,8.551,13.525,7.157,5.155,25.29,3.093,25.473,3.033.121,0,11.826-1.031,16.5-10.977a.542.542,0,1,1,.97.485C891,747.547,878.625,748.578,878.5,748.578A43.4,43.4,0,0,1,869.952,749.185Z" transform="translate(-389.308 -388.323)" fill="#437efd"/>
        <path id="Path_4963" data-name="Path 4963" d="M885.646,771.845a.544.544,0,0,1-.546-.546V704.646a.546.546,0,0,1,1.092,0V771.3C886.252,771.6,885.949,771.845,885.646,771.845Z" transform="translate(-405.791 -403.948)" fill="#437efd"/>
        <path id="Path_4964" data-name="Path 4964" d="M885.641,781.008a.863.863,0,0,1-.364-.121.567.567,0,0,1-.06-.788l11.523-13.222a.559.559,0,0,1,.849.728l-11.523,13.221A.551.551,0,0,1,885.641,781.008Z" transform="translate(-405.786 -428.577)" fill="#437efd"/>
        <path id="Path_4965" data-name="Path 4965" d="M878.364,766.064a.55.55,0,0,1-.425-.182l-11.523-12.494a.566.566,0,0,1,.06-.788.518.518,0,0,1,.789.061l11.523,12.494a.568.568,0,0,1-.061.789A.512.512,0,0,1,878.364,766.064Z" transform="translate(-398.388 -422.973)" fill="#437efd"/>
        <path id="Path_4966" data-name="Path 4966" d="M885.256,738.473a.461.461,0,0,1-.3-.122.575.575,0,0,1-.121-.788l10.129-14.01a.564.564,0,1,1,.91.667l-10.128,14.01A.552.552,0,0,1,885.256,738.473Z" transform="translate(-405.644 -411.513)" fill="#437efd"/>
        <path id="Path_4967" data-name="Path 4967" d="M914.856,779.9a.457.457,0,0,1-.425-.242.575.575,0,0,1,.121-.788l2.487-1.941a.564.564,0,0,1,.667.91l-2.486,1.941A.868.868,0,0,1,914.856,779.9Z" transform="translate(-417.292 -432.566)" fill="#437efd"/>
        <path id="Path_4968" data-name="Path 4968" d="M874.417,687.516a.867.867,0,0,1-.364-.121.575.575,0,0,1-.121-.789l2.487-3.154a.564.564,0,0,1,.91.667l-2.487,3.154A.526.526,0,0,1,874.417,687.516Z" transform="translate(-401.354 -395.734)" fill="#437efd"/>
        <path id="Path_4969" data-name="Path 4969" d="M901.236,686.861a.223.223,0,0,1-.182-.061.619.619,0,0,1-.364-.728l1.335-3.518a.575.575,0,1,1,1.091.364l-1.334,3.518A.563.563,0,0,1,901.236,686.861Z" transform="translate(-411.92 -395.32)" fill="#437efd"/>
        <path id="Path_4970" data-name="Path 4970" d="M856.844,775.138a.458.458,0,0,1-.425-.243.526.526,0,0,1,.121-.788l3.154-2.487a.564.564,0,1,1,.667.91l-3.154,2.487C857.147,775.138,857.026,775.138,856.844,775.138Z" transform="translate(-394.456 -430.469)" fill="#437efd"/>
        <path id="Path_4971" data-name="Path 4971" d="M855.069,847.3a.583.583,0,0,1-.546-.364l-10.128-29.111a2.855,2.855,0,0,1,.364-2.608A2.8,2.8,0,0,1,847.124,814h40.15a.546.546,0,0,1,0,1.092h-40.15a1.622,1.622,0,0,0-1.395.728,1.827,1.827,0,0,0-.243,1.577l10.128,29.111a.565.565,0,0,1-.364.728A.223.223,0,0,1,855.069,847.3Z" transform="translate(-389.709 -447.195)" fill="#437efd"/>
        <path id="Path_4972" data-name="Path 4972" d="M897.279,822.892H854.946a.546.546,0,0,1,0-1.092h42.333a.546.546,0,0,1,0,1.092Z" transform="translate(-393.71 -450.264)" fill="#437efd"/>
        <path id="Path_4973" data-name="Path 4973" d="M893.105,870.618H840.159a1.76,1.76,0,0,1-1.759-1.759h0a1.76,1.76,0,0,1,1.759-1.759h52.947a1.76,1.76,0,0,1,1.759,1.759h0A1.76,1.76,0,0,1,893.105,870.618Z" transform="translate(-387.414 -468.09)" fill="#437efd"/>
        <g id="Group_1565" data-name="Group 1565" transform="translate(533.226 261.215)">
          <path id="Path_4974" data-name="Path 4974" d="M997.532,674.409H975.82A1.787,1.787,0,0,1,974,672.59V641.72a1.787,1.787,0,0,1,1.819-1.819h21.712a1.787,1.787,0,0,1,1.82,1.819V672.59A1.825,1.825,0,0,1,997.532,674.409ZM975.82,640.931a.8.8,0,0,0-.788.788V672.59a.8.8,0,0,0,.788.788h21.712a.8.8,0,0,0,.789-.788V641.72a.8.8,0,0,0-.789-.788Z" transform="translate(-974 -639.9)" fill="#437efd"/>
          <path id="Path_4975" data-name="Path 4975" d="M997.414,671.077h-18.5a1.5,1.5,0,0,1-1.516-1.516V644.816a1.5,1.5,0,0,1,1.516-1.516h18.5a1.5,1.5,0,0,1,1.516,1.516v24.745A1.5,1.5,0,0,1,997.414,671.077Zm-18.5-26.867a.673.673,0,0,0-.667.667v24.745a.673.673,0,0,0,.667.667h18.5a.674.674,0,0,0,.667-.667V644.877a.674.674,0,0,0-.667-.667Z" transform="translate(-975.338 -641.238)" fill="#437efd"/>
          <rect id="Rectangle_1156" data-name="Rectangle 1156" width="4.185" height="1.274" transform="translate(11.22 31.052)" fill="#437efd"/>
        </g>
        <g id="Group_1566" data-name="Group 1566" transform="translate(436.006 260.669)">
          <path id="Path_4976" data-name="Path 4976" d="M834.564,674.055H816a2.3,2.3,0,0,1-2.3-2.3V641.3A2.3,2.3,0,0,1,816,639h18.559a2.3,2.3,0,0,1,2.3,2.3V671.75A2.3,2.3,0,0,1,834.564,674.055ZM816,640.031a1.281,1.281,0,0,0-1.273,1.273V671.75A1.281,1.281,0,0,0,816,673.024h18.559a1.281,1.281,0,0,0,1.273-1.274V641.3a1.281,1.281,0,0,0-1.273-1.273Z" transform="translate(-813.7 -639)" fill="#437efd"/>
          <path id="Path_4977" data-name="Path 4977" d="M834.221,670.905H819.3a2.019,2.019,0,0,1-2-2V644.4a2.019,2.019,0,0,1,2-2h14.919a2.019,2.019,0,0,1,2,2v24.5A2.019,2.019,0,0,1,834.221,670.905Zm-14.859-27.474a.958.958,0,0,0-.97.971v24.5a.958.958,0,0,0,.97.97h14.92a.958.958,0,0,0,.97-.97V644.4a.958.958,0,0,0-.97-.971Z" transform="translate(-815.117 -640.338)" fill="#437efd"/>
          <circle id="Ellipse_342" data-name="Ellipse 342" cx="1.152" cy="1.152" r="1.152" transform="translate(10.735 31.234)" fill="#437efd"/>
        </g>
        <g id="Group_1567" data-name="Group 1567" transform="translate(507.329 267.947)">
          <path id="Path_4978" data-name="Path 4978" d="M947.736,678.656H933.12a1.825,1.825,0,0,1-1.819-1.82V652.82A1.825,1.825,0,0,1,933.12,651h14.616a1.825,1.825,0,0,1,1.82,1.819v24.017A1.787,1.787,0,0,1,947.736,678.656ZM933.12,651.849a.957.957,0,0,0-.97.97v24.017a.958.958,0,0,0,.97.97h14.616a.958.958,0,0,0,.97-.97V652.82a.958.958,0,0,0-.97-.97Z" transform="translate(-931.3 -651)" fill="#437efd"/>
          <path id="Path_4979" data-name="Path 4979" d="M947.543,676.1H935.777a1.606,1.606,0,0,1-1.577-1.577V655.177a1.606,1.606,0,0,1,1.577-1.577h11.766a1.606,1.606,0,0,1,1.578,1.577v19.347A1.567,1.567,0,0,1,947.543,676.1ZM935.777,654.51a.7.7,0,0,0-.728.727v19.347a.7.7,0,0,0,.728.727h11.766a.7.7,0,0,0,.728-.727V655.238a.7.7,0,0,0-.728-.727Z" transform="translate(-932.441 -652.023)" fill="#437efd"/>
          <circle id="Ellipse_343" data-name="Ellipse 343" cx="0.91" cy="0.91" r="0.91" transform="translate(8.491 24.623)" fill="#437efd"/>
        </g>
        <path id="Path_4980" data-name="Path 4980" d="M786.346,764.868a.543.543,0,0,1-.546-.546V702.036a6.214,6.214,0,0,1,1.819-4.609c2.547-2.487,6.732-2.426,6.914-2.426H825.95a.546.546,0,0,1,0,1.092H794.533c-.06,0-4-.06-6.186,2.123a5.35,5.35,0,0,0-1.516,3.881v62.286A.522.522,0,0,1,786.346,764.868Z" transform="translate(-366.715 -400.367)" fill="#437efd"/>
        <path id="Path_4981" data-name="Path 4981" d="M991.525,764.77a.544.544,0,0,1-.546-.546V703.029c0-2.426-.667-4.245-1.941-5.4a6.853,6.853,0,0,0-4.791-1.456h-61.8a.546.546,0,1,1,0-1.091h61.741a7.835,7.835,0,0,1,5.58,1.7,8.006,8.006,0,0,1,2.3,6.186v61.2A.56.56,0,0,1,991.525,764.77Z" transform="translate(-420.272 -400.39)" fill="#437efd"/>
        <path id="Path_4982" data-name="Path 4982" d="M817.295,759.092H786.546a.546.546,0,0,1,0-1.092h30.749a.544.544,0,0,1,.546.546A.586.586,0,0,1,817.295,759.092Z" transform="translate(-366.794 -425.158)" fill="#437efd"/>
        <path id="Path_4983" data-name="Path 4983" d="M1000.171,759.092H943.646a.546.546,0,1,1,0-1.092h56.525a.543.543,0,0,1,.545.546A.586.586,0,0,1,1000.171,759.092Z" transform="translate(-428.614 -425.158)" fill="#437efd"/>
        <path id="Path_4984" data-name="Path 4984" d="M975.009,700.1h28.2s2.972.546,2.972,4.549v29.294H963s8.794-2.669,9.219-10.614C972.583,715.384,968.762,709.865,975.009,700.1Z" transform="translate(-436.446 -402.374)" fill="#b4c4f0"/>
        <path id="Path_4985" data-name="Path 4985" d="M952.584,764.7h43.91v26.2H941S958.406,784.957,952.584,764.7Z" transform="translate(-427.788 -427.795)" fill="#b4c4f0"/>
        <path id="Path_4986" data-name="Path 4986" d="M1020.738,809.592H937.346a.546.546,0,0,1,0-1.092h83.392a.546.546,0,1,1,0,1.092Z" transform="translate(-426.135 -445.031)" fill="#437efd"/>
        <path id="Path_4987" data-name="Path 4987" d="M787.136,809.513H711.507a.608.608,0,0,1-.607-.607.573.573,0,0,1,.607-.606H787.2a.608.608,0,0,1,.607.606A.624.624,0,0,1,787.136,809.513Z" transform="translate(-337.242 -444.952)" fill="#437efd"/>
        <path id="Path_4988" data-name="Path 4988" d="M428.735,814.413H405.507a.607.607,0,0,1-.606-.607.573.573,0,0,1,.606-.606h23.229a.607.607,0,0,1,0,1.213Z" transform="translate(-216.828 -446.88)" fill="#437efd"/>
        <path id="Path_4989" data-name="Path 4989" d="M334.239,813.513H254.607a.608.608,0,0,1-.607-.606.573.573,0,0,1,.607-.607h79.571a.608.608,0,0,1,.607.607A.56.56,0,0,1,334.239,813.513Z" transform="translate(-157.447 -446.526)" fill="#437efd"/>
        <path id="Path_4990" data-name="Path 4990" d="M167.009,812.513h-54.4a.608.608,0,0,1-.607-.607.573.573,0,0,1,.607-.606h54.4a.607.607,0,0,1,.606.606A.573.573,0,0,1,167.009,812.513Z" transform="translate(-101.568 -446.133)" fill="#437efd"/>
        <g id="Group_1569" data-name="Group 1569" transform="translate(39.361 20.803)">
          <path id="Path_4991" data-name="Path 4991" d="M176.021,333.328s4.367,16.678-2.487,24.017h-9.7s-.849-4.731,2.244-7.46a9.4,9.4,0,0,0,3.336-7.1C169.471,341.212,169.289,332.115,176.021,333.328Z" transform="translate(-161.284 -278.805)" fill="#b4c4f0"/>
          <g id="Group_1568" data-name="Group 1568">
            <path id="Path_4992" data-name="Path 4992" d="M186.992,376.3a13.646,13.646,0,0,1-27.292,0" transform="translate(-159.7 -295.758)" fill="#23e5a5" opacity="0.36"/>
            <path id="Path_4993" data-name="Path 4993" d="M181.446,297.9a.544.544,0,0,1-.546-.546V244.046a.546.546,0,1,1,1.092,0v53.311C181.931,297.66,181.749,297.9,181.446,297.9Z" transform="translate(-168.042 -243.5)" fill="#437efd"/>
            <path id="Path_4994" data-name="Path 4994" d="M186.471,357.188H163.546a.546.546,0,1,1,0-1.092h22.016a7.638,7.638,0,0,0-2.79-6c-2.3-1.941-2.365-4.427-2.426-7.035a16.433,16.433,0,0,0-.728-5.095,13.357,13.357,0,0,0-1.819-3.518,3.881,3.881,0,0,0-3.154-1.516.535.535,0,0,1-.546-.485.583.583,0,0,1,.485-.546,4.885,4.885,0,0,1,4,1.88,14.374,14.374,0,0,1,1.941,3.76,17.489,17.489,0,0,1,.789,5.459c.061,2.486.121,4.67,2.062,6.247a8.778,8.778,0,0,1,3.154,7.46Z" transform="translate(-160.999 -278.284)" fill="#437efd"/>
            <path id="Path_4995" data-name="Path 4995" d="M173.3,343.8" transform="translate(-165.052 -282.969)" fill="none" stroke="#437efd" stroke-linecap="round" stroke-miterlimit="10" stroke-width="1.748"/>
            <path id="Path_4996" data-name="Path 4996" d="M178.526,377.716a6.449,6.449,0,0,1-6.732-5.216.524.524,0,1,1,1.031-.182c0,.182.728,4.306,5.7,4.306s5.276-3.942,5.276-4.064a.516.516,0,0,1,1.031.061C184.894,372.743,184.47,377.716,178.526,377.716Z" transform="translate(-164.455 -294.021)" fill="#437efd"/>
          </g>
        </g>
        <g id="Group_1571" data-name="Group 1571" transform="translate(98.191 20.803)">
          <path id="Path_4997" data-name="Path 4997" d="M273.021,333.328s4.367,16.678-2.487,24.017h-9.7s-.849-4.731,2.244-7.46a9.4,9.4,0,0,0,3.336-7.1C266.471,341.212,266.229,332.115,273.021,333.328Z" transform="translate(-258.284 -278.805)" fill="#b4c4f0"/>
          <g id="Group_1570" data-name="Group 1570">
            <path id="Path_4998" data-name="Path 4998" d="M283.992,376.3a13.646,13.646,0,0,1-27.292,0" transform="translate(-256.7 -295.758)" fill="#23e5a5" opacity="0.36"/>
            <path id="Path_4999" data-name="Path 4999" d="M278.446,297.9a.544.544,0,0,1-.546-.546V244.046a.546.546,0,0,1,1.092,0v53.311A.64.64,0,0,1,278.446,297.9Z" transform="translate(-265.042 -243.5)" fill="#437efd"/>
            <path id="Path_5000" data-name="Path 5000" d="M283.471,357.188H260.546a.546.546,0,1,1,0-1.092h22.016a7.638,7.638,0,0,0-2.79-6c-2.3-1.941-2.365-4.427-2.426-7.035a16.438,16.438,0,0,0-.728-5.095,13.357,13.357,0,0,0-1.819-3.518,3.881,3.881,0,0,0-3.154-1.516.535.535,0,0,1-.546-.485.583.583,0,0,1,.485-.546,4.885,4.885,0,0,1,4,1.88,14.372,14.372,0,0,1,1.941,3.76,17.489,17.489,0,0,1,.789,5.459c.061,2.486.121,4.67,2.062,6.247a8.778,8.778,0,0,1,3.154,7.46Z" transform="translate(-257.999 -278.284)" fill="#437efd"/>
            <path id="Path_5001" data-name="Path 5001" d="M270.3,343.8" transform="translate(-262.052 -282.969)" fill="none" stroke="#437efd" stroke-linecap="round" stroke-miterlimit="10" stroke-width="1.748"/>
            <path id="Path_5002" data-name="Path 5002" d="M275.526,377.716a6.449,6.449,0,0,1-6.732-5.216.523.523,0,1,1,1.031-.182c0,.182.728,4.306,5.7,4.306s5.276-3.942,5.276-4.064a.516.516,0,0,1,1.031.061C281.894,372.743,281.47,377.716,275.526,377.716Z" transform="translate(-261.455 -294.021)" fill="#437efd"/>
          </g>
        </g>
        <g id="Group_1573" data-name="Group 1573" transform="translate(418.539 20.803)">
          <path id="Path_5003" data-name="Path 5003" d="M801.221,333.328s4.367,16.678-2.487,24.017h-9.7s-.849-4.731,2.244-7.46a9.4,9.4,0,0,0,3.336-7.1C794.732,341.212,794.489,332.115,801.221,333.328Z" transform="translate(-786.484 -278.805)" fill="#b4c4f0"/>
          <g id="Group_1572" data-name="Group 1572">
            <path id="Path_5004" data-name="Path 5004" d="M812.192,376.3a13.646,13.646,0,0,1-27.292,0" transform="translate(-784.9 -295.758)" fill="#23e5a5" opacity="0.36"/>
            <path id="Path_5005" data-name="Path 5005" d="M806.646,297.9a.544.544,0,0,1-.546-.546V244.046a.546.546,0,1,1,1.091,0v53.311A.543.543,0,0,1,806.646,297.9Z" transform="translate(-793.243 -243.5)" fill="#437efd"/>
            <path id="Path_5006" data-name="Path 5006" d="M811.771,357.188H788.846a.546.546,0,0,1,0-1.092h22.015a7.637,7.637,0,0,0-2.789-6c-2.3-1.941-2.365-4.427-2.426-7.035a16.424,16.424,0,0,0-.728-5.095,14.4,14.4,0,0,0-1.819-3.518,3.966,3.966,0,0,0-3.153-1.516.516.516,0,1,1-.061-1.031,4.805,4.805,0,0,1,4,1.88,14.373,14.373,0,0,1,1.941,3.76,17.505,17.505,0,0,1,.788,5.459c.06,2.486.122,4.67,2.062,6.247a8.779,8.779,0,0,1,3.154,7.46Z" transform="translate(-786.238 -278.284)" fill="#437efd"/>
            <path id="Path_5007" data-name="Path 5007" d="M798.5,343.8" transform="translate(-790.252 -282.969)" fill="none" stroke="#437efd" stroke-linecap="round" stroke-miterlimit="10" stroke-width="1.748"/>
            <path id="Path_5008" data-name="Path 5008" d="M803.826,377.716a6.45,6.45,0,0,1-6.732-5.216.524.524,0,0,1,1.031-.182c0,.182.728,4.306,5.7,4.306,4.912,0,5.276-3.942,5.276-4.064a.516.516,0,0,1,1.031.061C810.134,372.743,809.709,377.716,803.826,377.716Z" transform="translate(-789.695 -294.021)" fill="#437efd"/>
          </g>
        </g>
        <g id="Group_1575" data-name="Group 1575" transform="translate(477.368 20.803)">
          <path id="Path_5009" data-name="Path 5009" d="M898.222,333.328s4.367,16.678-2.486,24.017h-9.7s-.849-4.731,2.244-7.46a9.4,9.4,0,0,0,3.336-7.1C891.732,341.212,891.49,332.115,898.222,333.328Z" transform="translate(-883.484 -278.805)" fill="#b4c4f0"/>
          <g id="Group_1574" data-name="Group 1574">
            <path id="Path_5010" data-name="Path 5010" d="M909.192,376.3a13.646,13.646,0,1,1-27.292,0" transform="translate(-881.9 -295.758)" fill="#23e5a5" opacity="0.36"/>
            <path id="Path_5011" data-name="Path 5011" d="M903.646,297.9a.544.544,0,0,1-.546-.546V244.046a.546.546,0,0,1,1.092,0v53.311A.544.544,0,0,1,903.646,297.9Z" transform="translate(-890.243 -243.5)" fill="#437efd"/>
            <path id="Path_5012" data-name="Path 5012" d="M908.771,357.188H885.846a.546.546,0,1,1,0-1.092h22.015a7.638,7.638,0,0,0-2.789-6c-2.305-1.941-2.366-4.427-2.426-7.035a16.438,16.438,0,0,0-.728-5.095,13.355,13.355,0,0,0-1.819-3.518,3.966,3.966,0,0,0-3.154-1.516.516.516,0,1,1-.061-1.031,4.885,4.885,0,0,1,4,1.88,14.365,14.365,0,0,1,1.941,3.76,17.49,17.49,0,0,1,.789,5.459c.061,2.486.121,4.67,2.062,6.247a8.779,8.779,0,0,1,3.154,7.46Z" transform="translate(-883.238 -278.284)" fill="#437efd"/>
            <path id="Path_5013" data-name="Path 5013" d="M895.5,343.8" transform="translate(-887.252 -282.969)" fill="none" stroke="#437efd" stroke-linecap="round" stroke-miterlimit="10" stroke-width="1.748"/>
            <path id="Path_5014" data-name="Path 5014" d="M900.726,377.716a6.449,6.449,0,0,1-6.732-5.216.524.524,0,1,1,1.031-.182c0,.182.728,4.306,5.7,4.306S906,372.682,906,372.561a.516.516,0,1,1,1.031.061C907.094,372.743,906.67,377.716,900.726,377.716Z" transform="translate(-886.656 -294.021)" fill="#437efd"/>
          </g>
        </g>
        <path id="Path_5015" data-name="Path 5015" d="M624.31,244.092H152.946a.546.546,0,1,1,0-1.092H624.371a.544.544,0,0,1,.546.546A.6.6,0,0,1,624.31,244.092Z" transform="translate(-117.466 -222.501)" fill="#437efd"/>
        <path id="Path_5016" data-name="Path 5016" d="M475.575,210.492H186.946a.546.546,0,1,1,0-1.092H475.575a.544.544,0,0,1,.546.546A.509.509,0,0,1,475.575,210.492Z" transform="translate(-130.846 -209.279)" fill="#437efd"/>
        <path id="Path_5017" data-name="Path 5017" d="M982.743,243.692h-35.3a.546.546,0,0,1,0-1.092h35.3a.543.543,0,0,1,.546.546A.509.509,0,0,1,982.743,243.692Z" transform="translate(-430.11 -222.343)" fill="#437efd"/>
        <path id="Path_5018" data-name="Path 5018" d="M927.465,579.028H817.508a2.589,2.589,0,0,1-2.608-2.608V537.908a2.589,2.589,0,0,1,2.608-2.608H927.4a2.589,2.589,0,0,1,2.608,2.608v38.451A2.552,2.552,0,0,1,927.465,579.028Zm-109.957-42.7a1.5,1.5,0,0,0-1.516,1.516v38.512a1.5,1.5,0,0,0,1.516,1.516H927.4a1.5,1.5,0,0,0,1.516-1.516V537.847a1.5,1.5,0,0,0-1.516-1.516Z" transform="translate(-378.167 -337.524)" fill="#437efd"/>
        <g id="Group_1576" data-name="Group 1576" transform="translate(473.547 210.937)">
          <path id="Path_5019" data-name="Path 5019" d="M877.238,568.281a2.552,2.552,0,0,0,2.729,2.426,2.263,2.263,0,0,0,2.486-2.366c0-1.152-.606-1.819-1.88-2.183l-1.941-.607a3.916,3.916,0,0,1-2.79-4.064c0-2.911,1.941-4.488,4.124-4.488a4.147,4.147,0,0,1,4.124,4.367h-1.7A2.382,2.382,0,0,0,879.967,559a2.19,2.19,0,0,0-.667,4.306l1.941.607a3.894,3.894,0,0,1,3.032,4.185c0,2.972-1.88,4.609-4.427,4.609-3.154,0-4.246-2.426-4.246-4.488h1.638Z" transform="translate(-875.6 -557)" fill="#437efd"/>
          <path id="Path_5020" data-name="Path 5020" d="M893.1,572.7l4.064-15.1h1.88l4,15.1h-1.88l-1.091-4.185H895.89L894.8,572.7Zm4.913-12.494-1.637,6.429h3.336l-1.638-6.429Z" transform="translate(-882.486 -557.236)" fill="#437efd"/>
          <path id="Path_5021" data-name="Path 5021" d="M921.174,572.7H914.2V557.6h1.759v12.979h5.216Z" transform="translate(-890.79 -557.236)" fill="#437efd"/>
          <path id="Path_5022" data-name="Path 5022" d="M937.5,572.7h-7.1V557.6h7.1v2.062h-5.4v4.367h5.095v2H932.1v4.609h5.4Z" transform="translate(-897.164 -557.236)" fill="#437efd"/>
        </g>
        <path id="Path_5023" data-name="Path 5023" d="M868.689,210.492H718.946a.546.546,0,1,1,0-1.092H868.689a.546.546,0,0,1,0,1.092Z" transform="translate(-340.193 -209.279)" fill="#437efd"/>
        <path id="Path_5024" data-name="Path 5024" d="M697.2,210.413h0l-12.251-.121a.546.546,0,0,1,0-1.092h0l12.251.121a.546.546,0,0,1,0,1.092Z" transform="translate(-326.814 -209.2)" fill="#437efd"/>
      </g>
      <path id="Path_5025" data-name="Path 5025" d="M147.4,948.219H133.81a.91.91,0,1,1,0-1.819H147.4a.91.91,0,1,1,0,1.819Z" transform="translate(-83.705 -499.296)" fill="#437efd"/>
      <path id="Path_5026" data-name="Path 5026" d="M582.877,1008.974a12.4,12.4,0,0,1-2.183-.121H165.369c-18.619,0-28.869-7.156-28.869-20.2,0-5.519,1.7-9.946,5.094-13.1,6.247-5.883,15.83-5.458,16.254-5.458h77.024c6.126.182,10.614-.97,13.282-3.579a9.6,9.6,0,0,0,2.729-7.217,10.276,10.276,0,0,0-2.972-7.641c-4.306-4.125-11.766-3.943-11.827-3.943H162.155a.91.91,0,1,1,0-1.819h73.871c.3,0,8.309-.243,13.161,4.427A11.833,11.833,0,0,1,252.7,959.3a11.377,11.377,0,0,1-3.275,8.552c-3.032,2.911-7.945,4.306-14.616,4.064H157.788c-.121,0-9.34-.424-14.98,4.973-2.972,2.851-4.488,6.793-4.488,11.766,0,15.162,14.738,18.377,27.049,18.377H580.815c.061,0,9.158.909,14.071-3.518a10.047,10.047,0,0,0,3.154-7.763,10.984,10.984,0,0,0-3.032-8.067c-4.488-4.488-12.736-4.366-15.89-4.366H507.369c-.243,0-6.429.243-10.128-3.214a8.452,8.452,0,0,1-2.547-6.368,9.015,9.015,0,0,1,2.487-6.611c3.275-3.275,8.733-3.275,10.8-3.275H648.317a.91.91,0,0,1,0,1.82h-140.4c-1.819,0-6.732,0-9.461,2.729a7.293,7.293,0,0,0-1.941,5.337,6.67,6.67,0,0,0,2,5.034c3.093,2.972,8.734,2.729,8.794,2.729h71.748c3.336,0,12.13-.121,17.164,4.912a12.619,12.619,0,0,1,3.578,9.34,11.8,11.8,0,0,1-3.76,9.158C592.156,1008.428,586.152,1008.974,582.877,1008.974Z" transform="translate(-85.121 -499.097)" fill="#437efd"/>
      <circle id="Ellipse_344" data-name="Ellipse 344" cx="5.58" cy="5.58" r="5.58" transform="translate(571.201 459.356)" fill="#437efd"/>
    </g>
  </g>
</svg>
